<svg width="55" height="55" viewBox="0 0 55 55" fill="none" xmlns="http://www.w3.org/2000/svg">
<circle cx="27.5" cy="27.5" r="27.5" fill="#CA1657"/>
<g clip-path="url(#clip0_42_2103)">
<path d="M19.9624 17.9264C19.9624 15.6691 21.7928 13.8387 24.0501 13.8387C25.1334 13.8387 26.174 14.2709 26.9371 15.034L27.4334 15.5303L27.9297 15.034C28.6928 14.2709 29.7334 13.8387 30.8167 13.8387C33.074 13.8387 34.9044 15.6691 34.9044 17.9264C34.9044 19.0097 34.4722 20.0503 33.7091 20.8134L28.1858 26.3313C27.7696 26.7475 27.0919 26.7475 26.6756 26.3313L21.1577 20.8134C20.3946 20.0503 19.9624 19.0097 19.9624 17.9264ZM42.3861 31.7851C43.0852 32.735 42.8824 34.0691 41.9325 34.7682L35.1766 39.7471C33.9279 40.665 32.423 41.1613 30.8701 41.1613H22.3104H13.7721C12.8276 41.1613 12.0645 40.3982 12.0645 39.4536V36.0383C12.0645 35.0937 12.8276 34.3306 13.7721 34.3306H15.7359L18.132 32.4095C19.3434 31.4383 20.8482 30.9153 22.4011 30.9153H26.5796H27.4334H30.8487C31.7933 30.9153 32.5564 31.6784 32.5564 32.623C32.5564 33.5675 31.7933 34.3306 30.8487 34.3306H27.4334H26.5796C26.11 34.3306 25.7257 34.7148 25.7257 35.1845C25.7257 35.6541 26.11 36.0383 26.5796 36.0383H33.0153L39.403 31.3315C40.3529 30.6325 41.687 30.8352 42.3861 31.7851ZM22.3958 34.3306H22.3478C22.3638 34.3306 22.3798 34.3306 22.3958 34.3306Z" fill="white"/>
</g>
<defs>
<clipPath id="clip0_42_2103">
<rect width="30.7379" height="27.3226" fill="white" transform="translate(12.0645 13.8387)"/>
</clipPath>
</defs>
</svg>
