<svg width="55" height="55" viewBox="0 0 55 55" fill="none" xmlns="http://www.w3.org/2000/svg">
<circle cx="27.5" cy="27.5" r="27.5" fill="#CA1657"/>
<g clip-path="url(#clip0_42_2101)">
<path d="M18.9616 18.9617C18.9616 17.0779 20.4932 15.5464 22.3769 15.5464H37.7459C39.6296 15.5464 41.1612 17.0779 41.1612 18.9617V36.0383C41.1612 37.9221 39.6296 39.4536 37.7459 39.4536H18.1078C15.7491 39.4536 13.8386 37.5432 13.8386 35.1845V20.6694C13.8386 19.7248 14.6017 18.9617 15.5463 18.9617C16.4908 18.9617 17.2539 19.7248 17.2539 20.6694V35.1845C17.2539 35.6541 17.6382 36.0383 18.1078 36.0383C18.5774 36.0383 18.9616 35.6541 18.9616 35.1845V18.9617ZM22.3769 20.2425V24.5116C22.3769 25.2214 22.9479 25.7924 23.6577 25.7924H36.4651C37.1749 25.7924 37.7459 25.2214 37.7459 24.5116V20.2425C37.7459 19.5327 37.1749 18.9617 36.4651 18.9617H23.6577C22.9479 18.9617 22.3769 19.5327 22.3769 20.2425ZM22.3769 30.0615C22.3769 30.5311 22.7612 30.9153 23.2308 30.9153H28.3537C28.8234 30.9153 29.2076 30.5311 29.2076 30.0615C29.2076 29.5919 28.8234 29.2077 28.3537 29.2077H23.2308C22.7612 29.2077 22.3769 29.5919 22.3769 30.0615ZM30.9152 30.0615C30.9152 30.5311 31.2995 30.9153 31.7691 30.9153H36.892C37.3617 30.9153 37.7459 30.5311 37.7459 30.0615C37.7459 29.5919 37.3617 29.2077 36.892 29.2077H31.7691C31.2995 29.2077 30.9152 29.5919 30.9152 30.0615ZM22.3769 35.1845C22.3769 35.6541 22.7612 36.0383 23.2308 36.0383H28.3537C28.8234 36.0383 29.2076 35.6541 29.2076 35.1845C29.2076 34.7149 28.8234 34.3307 28.3537 34.3307H23.2308C22.7612 34.3307 22.3769 34.7149 22.3769 35.1845ZM30.9152 35.1845C30.9152 35.6541 31.2995 36.0383 31.7691 36.0383H36.892C37.3617 36.0383 37.7459 35.6541 37.7459 35.1845C37.7459 34.7149 37.3617 34.3307 36.892 34.3307H31.7691C31.2995 34.3307 30.9152 34.7149 30.9152 35.1845Z" fill="white"/>
</g>
<defs>
<clipPath id="clip0_42_2101">
<rect width="27.3226" height="27.3226" fill="white" transform="translate(13.8386 13.8387)"/>
</clipPath>
</defs>
</svg>
