<svg width="55" height="55" viewBox="0 0 55 55" fill="none" xmlns="http://www.w3.org/2000/svg">
<circle cx="27.5" cy="27.5" r="27.5" fill="#CA1657"/>
<g clip-path="url(#clip0_42_2102)">
<path d="M12.0645 19.8423V36.3746C12.0645 37.3352 12.6034 38.2424 13.5053 38.5786C18.148 40.3129 22.7907 39.1282 27.4334 37.9435C31.6919 36.8602 35.9504 35.7716 40.2035 36.9349C41.4309 37.2711 42.8024 36.428 42.8024 35.1526V18.6256C42.8024 17.665 42.2634 16.7578 41.3615 16.4217C36.7188 14.6873 32.0761 15.872 27.4334 17.0567C23.1749 18.14 18.9164 19.2233 14.6633 18.0599C13.4306 17.7237 12.0645 18.5669 12.0645 19.8423ZM27.4334 32.6231C25.0747 32.6231 23.1643 30.3284 23.1643 27.5001C23.1643 24.6718 25.0747 22.3771 27.4334 22.3771C29.7921 22.3771 31.7026 24.6718 31.7026 27.5001C31.7026 30.3284 29.7921 32.6231 27.4334 32.6231ZM15.4798 32.6231C17.3635 32.6231 18.8951 34.1546 18.8951 36.0384H15.4798V32.6231ZM18.8951 21.5233C18.8951 23.4071 17.3635 24.9386 15.4798 24.9386V21.5233H18.8951ZM39.387 30.0616V33.4769H35.9717C35.9717 31.5932 37.5033 30.0616 39.387 30.0616ZM35.9717 18.9618H39.387V22.3771C37.5033 22.3771 35.9717 20.8456 35.9717 18.9618Z" fill="white"/>
</g>
<defs>
<clipPath id="clip0_42_2102">
<rect width="30.7379" height="27.3226" fill="white" transform="translate(12.0645 13.8387)"/>
</clipPath>
</defs>
</svg>
