<svg width="55" height="55" viewBox="0 0 55 55" fill="none" xmlns="http://www.w3.org/2000/svg">
<circle cx="27.5" cy="27.5" r="27.5" fill="#CA1657"/>
<g clip-path="url(#clip0_42_2104)">
<path d="M24.0045 17.5102L25.8616 20.6693H25.7923H21.95C20.7707 20.6693 19.8154 19.7141 19.8154 18.5348C19.8154 17.3554 20.7707 16.4002 21.95 16.4002H22.0674C22.8625 16.4002 23.6043 16.8218 24.0045 17.5102ZM17.2539 18.5348C17.2539 19.3032 17.4407 20.029 17.7662 20.6693H15.5463C14.6017 20.6693 13.8386 21.4324 13.8386 22.377V25.7923C13.8386 26.7369 14.6017 27.5 15.5463 27.5H39.4535C40.3981 27.5 41.1612 26.7369 41.1612 25.7923V22.377C41.1612 21.4324 40.3981 20.6693 39.4535 20.6693H37.2336C37.5591 20.029 37.7459 19.3032 37.7459 18.5348C37.7459 15.9412 35.6433 13.8387 33.0498 13.8387H32.9324C31.2301 13.8387 29.6505 14.7405 28.786 16.2081L27.4999 18.4013L26.2138 16.2134C25.3493 14.7405 23.7697 13.8387 22.0674 13.8387H21.95C19.3565 13.8387 17.2539 15.9412 17.2539 18.5348ZM35.1844 18.5348C35.1844 19.7141 34.2292 20.6693 33.0498 20.6693H29.2076H29.1382L30.9953 17.5102C31.4009 16.8218 32.1373 16.4002 32.9324 16.4002H33.0498C34.2292 16.4002 35.1844 17.3554 35.1844 18.5348ZM15.5463 29.2076V38.5998C15.5463 40.0139 16.6936 41.1613 18.1078 41.1613H25.7923V29.2076H15.5463ZM29.2076 41.1613H36.892C38.3062 41.1613 39.4535 40.0139 39.4535 38.5998V29.2076H29.2076V41.1613Z" fill="white"/>
</g>
<defs>
<clipPath id="clip0_42_2104">
<rect width="27.3226" height="27.3226" fill="white" transform="translate(13.8386 13.8387)"/>
</clipPath>
</defs>
</svg>
