<svg width="28" height="29" viewBox="0 0 28 29" fill="none" xmlns="http://www.w3.org/2000/svg">
<g clip-path="url(#clip0_46_34)">
<path d="M10.418 4.2625L12.3211 7.5H12.25H8.3125C7.10391 7.5 6.125 6.52109 6.125 5.3125C6.125 4.10391 7.10391 3.125 8.3125 3.125H8.43281C9.24766 3.125 10.0078 3.55703 10.418 4.2625ZM3.5 5.3125C3.5 6.1 3.69141 6.84375 4.025 7.5H1.75C0.782031 7.5 0 8.28203 0 9.25V12.75C0 13.718 0.782031 14.5 1.75 14.5H26.25C27.218 14.5 28 13.718 28 12.75V9.25C28 8.28203 27.218 7.5 26.25 7.5H23.975C24.3086 6.84375 24.5 6.1 24.5 5.3125C24.5 2.65469 22.3453 0.5 19.6875 0.5H19.5672C17.8227 0.5 16.2039 1.42422 15.318 2.92813L14 5.17578L12.682 2.93359C11.7961 1.42422 10.1773 0.5 8.43281 0.5H8.3125C5.65469 0.5 3.5 2.65469 3.5 5.3125ZM21.875 5.3125C21.875 6.52109 20.8961 7.5 19.6875 7.5H15.75H15.6789L17.582 4.2625C17.9977 3.55703 18.7523 3.125 19.5672 3.125H19.6875C20.8961 3.125 21.875 4.10391 21.875 5.3125ZM1.75 16.25V25.875C1.75 27.3242 2.92578 28.5 4.375 28.5H12.25V16.25H1.75ZM15.75 28.5H23.625C25.0742 28.5 26.25 27.3242 26.25 25.875V16.25H15.75V28.5Z" fill="#FC6D3A"/>
</g>
<defs>
<clipPath id="clip0_46_34">
<rect width="28" height="28" fill="white" transform="translate(0 0.5)"/>
</clipPath>
</defs>
</svg>
