<svg width="18" height="19" viewBox="0 0 18 19" fill="none" xmlns="http://www.w3.org/2000/svg">
<g clip-path="url(#clip0_190_30)">
<path d="M9 18.5C4.02891 18.5 0 14.4711 0 9.5C0 4.52891 4.02891 0.5 9 0.5C13.9711 0.5 18 4.52891 18 9.5C18 14.4711 13.9711 18.5 9 18.5ZM8.15625 4.71875V9.5C8.15625 9.78125 8.29687 10.0449 8.53242 10.2031L11.9074 12.4531C12.2941 12.7133 12.818 12.6078 13.0781 12.2176C13.3383 11.8273 13.2328 11.307 12.8426 11.0469L9.84375 9.05V4.71875C9.84375 4.25117 9.46758 3.875 9 3.875C8.53242 3.875 8.15625 4.25117 8.15625 4.71875Z" fill="#FC6D3A"/>
</g>
<defs>
<clipPath id="clip0_190_30">
<rect width="18" height="18" fill="white" transform="translate(0 0.5)"/>
</clipPath>
</defs>
</svg>
