<?xml version="1.0" encoding="utf-8"?>
<!-- Generator: Adobe Illustrator 25.4.1, SVG Export Plug-In . SVG Version: 6.00 Build 0)  -->
<svg version="1.1" id="圖層_1" xmlns="http://www.w3.org/2000/svg" xmlns:xlink="http://www.w3.org/1999/xlink" x="0px" y="0px"
	 viewBox="0 0 486 434" style="enable-background:new 0 0 486 434;" xml:space="preserve">
<style type="text/css">
	.st0{clip-path:url(#SVGID_00000142140296773954292640000015657404216633871787_);}
	.st1{fill:#FFBD90;}
	.st2{fill:#333333;}
	.st3{fill:#FFFFFF;}
	.st4{fill:#9664E1;}
	.st5{fill:#999999;}
	.st6{fill:#CA1657;}
	.st7{fill:#03284B;}
	.st8{fill:#FFE65C;}
</style>
<g>
	<defs>
		<rect id="SVGID_1_" width="485.9" height="434"/>
	</defs>
	<clipPath id="SVGID_00000066499904840713493300000018159313941744049297_">
		<use xlink:href="#SVGID_1_"  style="overflow:visible;"/>
	</clipPath>
	<g style="clip-path:url(#SVGID_00000066499904840713493300000018159313941744049297_);">
		<path class="st1" d="M262,309.3c0,0,16.3-5.8,18.8-4.8c1.4,0.6,10.7,19.2,8.3,20.7c-2.4,1.5-11.5-11.9-16.6-11.2
			c-3.3,0.5-6.5,1.5-9.5,2.9L262,309.3z"/>
		<path class="st2" d="M273.9,305.4c8.8,8,8.3,12,7.1,13.7c3.5,3.3,6.7,6.8,8,6c2.4-1.5-7-20.1-8.3-20.7
			C279.8,304.1,277.1,304.6,273.9,305.4z"/>
		<path class="st1" d="M188.1,382.8c0,0,2,17.8,0.4,19.9c-0.9,1.2-22,6.3-22.9,3.5c-1-2.8,14.8-8.7,15.3-14.1
			c0.3-3.4,0.1-6.9-0.7-10.2L188.1,382.8z"/>
		<path class="st2" d="M189.1,395.7c-10.2,6.9-14.1,5.5-15.5,3.9c-4.2,2.7-8.5,5.2-8,6.6c1,2.8,22-2.3,22.9-3.5
			C189.1,402,189.2,399.1,189.1,395.7z"/>
		<path class="st2" d="M160.8,197.6c0.1,3.6,4.4,6.6,3.2,10c-0.3,0.8-0.8,1.4-1,2.2c-0.5,1.7,0.8,3.5,2.4,4.1s3.5,0.3,5.1-0.4
			c1.6-0.7,3.1-1.7,4.7-2.4c3.6-1.6,7.6-1.9,11.4-2.6c3.9-0.8,7.8-2.1,11.8-1.8c4.6,0.3,8.7,2.7,13,4.4c4.4,1.7,9,2.6,13.7,2.7
			c2.4,0,5-0.2,7.1-1.3c4.3-2.3,6-7.9,4.3-12.3c-1-2.5-2.9-4.6-5.3-5.9c-2.1-1.2-4.8-1.6-6.4-3.5c-2.2-2.7-0.9-6.9-1.7-10.3
			c-0.7-2.9-3.2-5.2-5.8-6.4c-2.5-1.1-5.6-1.2-7.5-3.4c-2-2.4-1.4-5.7-1.7-8.6c-0.5-4.1-3.3-7.7-6.8-9.9c-1.1-0.7-2.2-1.2-3.4-1.6
			c-7.9-2.9-18.2-0.9-20.9,8.1c-0.8,2.8-0.8,5.8-2.3,8.3c-1.6,2.7-4.9,4.3-5.9,7.3c-1.1,3.8,2.1,7.8,1,11.6c-0.7,2.5-3,4.1-5.1,5.6
			C162.8,193,160.7,195,160.8,197.6z"/>
		<path class="st1" d="M231.2,200.9c0,0,27.5-11.4,30.7-38.6l-5.3-0.1c0,0-8.3,21.9-32.4,28.6L231.2,200.9z"/>
		<path class="st1" d="M170.1,190.5c-1.1-0.3-18.9-9.6-21.5-47.1l-5.8,1c0,0-1.2,50.2,17.5,58.1L170.1,190.5z"/>
		<path class="st3" d="M198.6,190.5c0,0,11.4,1,16.6,0c5.2-1,10.9-3.3,10.9-3.3l6.9,18.8c0,0-17.8,5.2-17.2,8.3
			c0.6,3.1,1.3,28.2-5.1,30.4h-28c0,0-9.5-1.9-9.5-13.8s-1.7-16.6-4.5-18.7c-2.8-2.1-15-10-15-10l11.2-17.3c0,0,12.3,5.2,17.1,5.5
			C186.7,190.5,198.6,190.5,198.6,190.5z"/>
		<path class="st2" d="M210.7,244.6c0,0,6.6,13.4,8.8,21.3c2.2,7.9,4.4,42.1,7,45.2c2.5,3.2,38.3-3.5,38.3-3.5l2.8,8.5
			c0,0-37,21.2-48.7,17.4c-11.7-3.8-25.5-48.1-25.5-48.1s-6.2,43-4.9,52.5c1.3,9.5,2.5,49.7,2.5,49.7h-12.7c0,0-6.3-31.6-10.1-74.4
			c-3.8-42.7,14.5-68.7,14.5-68.7H210.7z"/>
		<path class="st1" d="M178.7,171.3c0,0-1.3-1.4-2-0.6c-1.8,1.9,0.8,3.8,2.2,4L178.7,171.3z"/>
		<path class="st1" d="M189,150.2c3.2-0.3,6.3,0.7,8.8,2.6c2.5,1.9,4.3,4.7,4.9,7.8c0.4,2,0.4,4.1-0.2,6.1c-1.1,4.7-2,8.6-3.4,11.4
			c-1.5,2.9-1.8,6.3-0.9,9.4l1,3.2c-6.9,4.9-10.7,1.6-10.7,1.6l-1.1-7.4c-8.2,0.3-9.4-14.8-10.1-19.2c0-0.2-0.1-0.3-0.1-0.5
			c-0.3-1.8-0.2-3.6,0.3-5.3c0.5-1.7,1.3-3.3,2.4-4.7c1.1-1.4,2.5-2.6,4-3.4C185.5,150.8,187.3,150.3,189,150.2L189,150.2z"/>
		<path class="st2" d="M191.9,163.1c1.8,1.4,3.5,2.9,5.1,4.5c1.7,1.7,3.5,3.4,4.2,5.7c1.8-1.9,2.8-4.5,3.6-7
			c0.4-1.2,0.6-2.4,0.7-3.6c0-1.7-0.7-3.4-1.4-5c-0.9-2.1-1.8-4.2-3.5-5.7c-1.2-0.9-2.5-1.6-4-1.9c-3.3-1-6.9-1.2-10.2-0.2
			c-3.3,1-6.3,3.2-7.9,6.3c-2.1,4-1.6,8.7-1.2,13.1c0.2-1.9,1.1-3.6,2.1-5.3c0.6-1.1,1.3-2.2,2.2-3c1.6-1.4,2.1-1.2,4.9-3.8
			C187.7,160,189.7,161.4,191.9,163.1z"/>
		<path class="st1" d="M199.2,170.7c0.2-0.4,0.5-0.8,0.9-1.1c0.8-0.5,2.3-1.1,3.6-0.2c1.8,1.3-0.7,6-4.2,4.4
			C199.5,173.9,198.5,173.1,199.2,170.7z"/>
		<path class="st2" d="M180.9,171.1c-0.1-0.2,0-0.4,0-0.7c0.1-0.2,0.2-0.4,0.4-0.5c0.2-0.1,0.4-0.2,0.6-0.2c0.2,0,0.4,0,0.6,0.2
			c0.2,0.1,0.3,0.3,0.4,0.5c0.1,0.2,0.1,0.4,0.1,0.7c0,0.2-0.1,0.4-0.3,0.6s-0.3,0.3-0.6,0.3c-0.3,0.1-0.6,0-0.9-0.1
			C181.1,171.6,180.9,171.4,180.9,171.1L180.9,171.1z"/>
		<path class="st2" d="M191.6,170.6c-0.1-0.2,0-0.4,0-0.7c0.1-0.2,0.2-0.4,0.4-0.5c0.2-0.1,0.4-0.2,0.6-0.2c0.2,0,0.4,0,0.6,0.2
			s0.3,0.3,0.4,0.5c0.1,0.2,0.1,0.4,0.1,0.7c0,0.2-0.1,0.4-0.3,0.6c-0.2,0.2-0.3,0.3-0.6,0.3c-0.1,0-0.3,0-0.4,0
			c-0.1,0-0.3-0.1-0.4-0.1c-0.1-0.1-0.2-0.2-0.3-0.3C191.7,170.9,191.6,170.8,191.6,170.6L191.6,170.6z"/>
		<path class="st1" d="M184.5,178.8c0,0,0.9-0.8,1.5-0.7c0.4,0.1,0.8,0.4,1,0.8c0.1-0.2,0.2-0.4,0.4-0.5c0.2-0.1,0.4-0.2,0.6-0.3
			c0.7-0.1,2.7,0.3,2.7,0.3s-1.5,3.2-3.7,2.8c-0.6-0.1-1.2-0.3-1.6-0.7s-0.7-0.9-0.8-1.5L184.5,178.8z"/>
		<path class="st2" d="M186.6,179.8c2.4,0.3,4.6-1.7,4.6-1.7c0,0,0,0,0-0.1c0,0,0,0,0-0.1s0,0,0-0.1c0,0,0,0,0-0.1c0,0-0.1,0-0.1,0
			c0,0-0.1,0-0.1,0c-0.1,0.1-3.5,3.2-6.5,0.7c0,0-0.1,0-0.1,0c0,0-0.1,0-0.1,0.1c0,0,0,0.1,0,0.1c0,0,0,0.1,0,0.1
			C184.9,179.4,185.7,179.7,186.6,179.8L186.6,179.8z"/>
		<path class="st2" d="M195,168.5c0.1,0,0.1,0,0.2-0.1c0.1,0,0.1-0.1,0.1-0.2c0-0.1,0-0.1,0.1-0.2c0-0.1,0-0.1,0-0.2
			c0-0.1,0-0.1-0.1-0.2c0,0-0.1-0.1-0.1-0.1c-1.2-0.5-2.5-0.7-3.8-0.4c-0.1,0-0.1,0-0.2,0.1c0,0-0.1,0.1-0.1,0.1
			c0,0.1-0.1,0.1-0.1,0.2c0,0.1,0,0.1,0,0.2c0,0.1,0.1,0.2,0.2,0.3c0.1,0.1,0.2,0.1,0.4,0.1c1-0.3,2.1-0.2,3.1,0.3
			C194.8,168.5,194.9,168.5,195,168.5z"/>
		<path class="st2" d="M183.4,168.3c0.1,0,0.1-0.1,0.2-0.1c0-0.1,0.1-0.1,0.1-0.2c0-0.1,0-0.2,0-0.4c-0.1-0.1-0.2-0.2-0.3-0.2
			c-1.3-0.3-2.6-0.2-3.8,0.3c-0.1,0-0.1,0.1-0.2,0.1c0,0-0.1,0.1-0.1,0.2c0,0.1,0,0.1,0,0.2c0,0.1,0,0.1,0,0.2
			c0.1,0.1,0.1,0.2,0.3,0.2c0.1,0,0.2,0,0.4,0c1-0.4,2.1-0.5,3.1-0.3C183.1,168.3,183.3,168.3,183.4,168.3L183.4,168.3z"/>
		<path class="st1" d="M187.2,175.7c-0.5,0-0.9-0.1-1.3-0.4c-0.4-0.3-0.6-0.7-0.8-1.1c0-0.1,0-0.2,0-0.3c1-1.6,0.5-3.7,0.5-3.8
			c0-0.1,0-0.2,0.1-0.3c0.1-0.1,0.1-0.2,0.2-0.2c0.1,0,0.2,0,0.3,0.1c0.1,0.1,0.2,0.1,0.2,0.2c0,0.1,0.5,2.3-0.5,4.2
			c0.1,0.3,0.5,0.9,1.8,0.7c0.1,0,0.2,0,0.3,0.1c0.1,0.1,0.1,0.1,0.2,0.3c0,0.1,0,0.2-0.1,0.3c-0.1,0.1-0.1,0.1-0.3,0.2
			C187.7,175.7,187.4,175.7,187.2,175.7z"/>
		<path class="st4" d="M202.2,157.4l2-21.8L189,150.2C189,150.2,194.5,158.8,202.2,157.4z"/>
		<path class="st1" d="M205.4,132.9l4.4-4.6l1.5,3l-4.9,2.5l6.2,2.3l-2.4,2.9l-4.3-4.2l1.1,6.6h-2.8v-5.8l-5.3,2l0-4.4l4.6,0.7
			l-2.8-6.3h3.6L205.4,132.9z"/>
		<path class="st1" d="M200.5,150.5c0-0.5-0.1-1-0.4-1.4c-0.3-0.4-0.7-0.8-1.2-1c-0.5-0.2-1-0.3-1.5-0.2c-0.5,0.1-1,0.3-1.3,0.7
			c-0.4,0.4-0.6,0.8-0.7,1.3c-0.1,0.5-0.1,1,0.1,1.5c0.2,0.5,0.5,0.9,1,1.2c0.4,0.3,0.9,0.4,1.4,0.4c0.3,0,0.7-0.1,1-0.2
			c0.3-0.1,0.6-0.3,0.8-0.6c0.2-0.2,0.4-0.5,0.6-0.8C200.5,151.2,200.5,150.8,200.5,150.5L200.5,150.5z"/>
		<path class="st1" d="M201.9,145.3c0,0.4,0.1,0.9,0.3,1.3c0.2,0.4,0.5,0.7,0.9,0.9l0.4-4.6c-0.5,0.2-0.9,0.5-1.2,0.9
			C202.1,144.3,201.9,144.8,201.9,145.3L201.9,145.3z"/>
		<path class="st1" d="M197.1,145.3c0.7,0,1.3-0.3,1.8-0.8c0.5-0.5,0.8-1.1,0.8-1.8c0-0.4-0.1-0.7-0.2-1.1c-0.2-0.3-0.4-0.6-0.7-0.9
			l-3.7,3.6c0.2,0.3,0.5,0.6,0.9,0.7C196.3,145.2,196.7,145.3,197.1,145.3L197.1,145.3z"/>
		<path class="st1" d="M256.6,162.3c0,0-2.9-5-3.5-7c-0.6-2-2.8-3.5-1.8-4.2c1-0.7,3.6,2.3,3.6,2.3s0.7-4.3,0.7-5.6
			c0-1.3,0.6-3.7,1.6-3.8c1-0.1,0.4,6.4,0.4,6.4s1-5.4,1.9-5.6c0.9-0.2,0.6,6.8,0.6,6.8s0.8-5.8,1.2-6.2c0.5-0.4,1,0.2,1.2,2.3
			c0.1,1.4,0.1,2.9-0.1,4.3c0,0,0.8-4,1.1-4.5c0.3-0.4,1-0.9,1,2.3c0,3.2-1.1,10-3.1,13.2L256.6,162.3z"/>
		<path class="st1" d="M148.2,144.3c0,0,2.9-5,3.5-7c0.6-2,2.8-3.5,1.8-4.2c-1-0.7-3.6,2.3-3.6,2.3s-0.7-4.3-0.7-5.6
			c0-1.3-0.7-3.7-1.6-3.8c-1-0.1-0.4,6.4-0.4,6.4s-1-5.4-1.9-5.6c-0.9-0.3-0.6,6.8-0.6,6.8s-0.8-5.8-1.2-6.2c-0.5-0.4-1,0.2-1.2,2.3
			c-0.1,1.4-0.1,2.9,0.1,4.3c0,0-0.8-4-1.1-4.5c-0.3-0.4-1-0.9-1,2.3c0,3.2,1.1,10,3.1,13.2L148.2,144.3z"/>
		<path class="st2" d="M201.1,220.2c-2.1,0-4.6-0.5-7.5-2c-0.1,0-0.1-0.1-0.1-0.1c0,0-0.1-0.1-0.1-0.1c0-0.1,0-0.1,0-0.2
			c0-0.1,0-0.1,0-0.2c0,0,0.1-0.1,0.1-0.1c0,0,0.1-0.1,0.1-0.1c0.1,0,0.1,0,0.2,0c0.1,0,0.1,0,0.2,0.1c8.1,4.2,13.3,0.2,13.5,0
			c0,0,0.1-0.1,0.1-0.1c0.1,0,0.1,0,0.2,0c0.1,0,0.1,0,0.2,0c0,0,0.1,0.1,0.1,0.1c0,0,0.1,0.1,0.1,0.1c0,0.1,0,0.1,0,0.2
			c0,0.1,0,0.1-0.1,0.2c0,0-0.1,0.1-0.1,0.1C207.9,218.2,205.4,220.2,201.1,220.2z"/>
		<path class="st1" d="M144,234.5c0,0,4.2-24.6-9.7-53.4l-5.7,3c0,0,9.1,27,2.1,48L144,234.5z"/>
		<path class="st1" d="M78.2,250.2c0,0-9-23.3-1-54.3l6.2,1.8c0,0-3.6,28.3,7.5,47.5L78.2,250.2z"/>
		<path class="st5" d="M155.7,316.2l11.8,37.4l-56.8,17.5l-5.6-52.6L155.7,316.2z"/>
		<path class="st1" d="M129.2,186.2c0,0-5.4-6.8-6.6-8.9c-1.2-2.1-3.9-3.1-3.1-4.2s4.6,1.6,4.6,1.6s-0.3-4.9-0.6-6.3
			c-0.3-1.5-0.2-4.3,0.8-4.6c1.1-0.3,2.1,6.9,2.1,6.9s-0.3-6.1,0.6-6.7c0.9-0.5,2.4,7.3,2.4,7.3s-0.6-6.5-0.2-7.1
			c0.4-0.6,1.1-0.1,1.9,2.2c0.5,1.6,0.9,3.2,1,4.8c0,0-0.1-4.6,0.1-5.2c0.2-0.6,0.8-1.2,1.7,2.3c0.8,3.5,1.4,11.1,0.1,15.1
			L129.2,186.2z"/>
		<path class="st1" d="M83,198.5c0,0,4.4-5,5.9-6.9c1.4-1.9,4.3-2.7,3.5-3.9c-0.8-1.2-4.8,1.1-4.8,1.1s0.8-4.8,1.3-6.2
			c0.5-1.4,0.7-4.2-0.3-4.6c-1-0.4-2.8,6.6-2.8,6.6s1-6.1,0.1-6.7c-0.9-0.6-3.2,7-3.2,7s1.3-6.4,1-7c-0.3-0.6-1.1-0.2-2.1,2
			c-0.7,1.5-1.2,3-1.5,4.6c0,0,0.6-4.6,0.5-5.2c-0.1-0.6-0.7-1.3-1.9,2.1c-1.2,3.4-2.4,10.9-1.5,15L83,198.5z"/>
		<path class="st6" d="M159.2,317c0,0-15.9-46.9-16-52.9c-0.2-6,5.7-31.3,5.7-31.3l-20.4-5.2c0,0-2.5,23.6-13.3,24.4
			s-17.7-1.5-23.7-13.4l-18.2,15.6c0,0,16.2,12.1,19.6,29.1c3.3,17.1,11.4,50.6,11.4,50.6S146.5,329.9,159.2,317z"/>
		<path class="st1" d="M98,233.4c0,0-1.2-1.4-1.9-0.7c-1.8,1.8,0.4,3.6,1.9,3.9L98,233.4z"/>
		<path class="st1" d="M96.9,227.9c0-0.2,0-0.3-0.1-0.5c-0.2-1.8,0-3.7,0.6-5.5c0.6-1.8,1.6-3.4,2.9-4.7c1.3-1.3,2.9-2.4,4.6-3
			c1.7-0.7,3.6-0.9,5.5-0.7c1.9,0.2,3.6,0.7,5.2,1.7c1.6,0.9,3,2.2,4,3.8c1,1.5,1.7,3.3,2,5.1c0.3,1.8,0.1,3.7-0.4,5.5
			c-0.8,3-1.5,5.6-2.3,7.8c-1.3,3.6-1.5,7.6-0.3,11.3l0.9,2.9c-7.1,5-11,1.6-11,1.6l-0.8-5.4c-0.1-0.3-0.2-0.7-0.5-0.9
			c-0.3-0.2-0.6-0.3-1-0.3l0,0C96.5,247.2,97.4,232.1,96.9,227.9z"/>
		<path class="st2" d="M110.4,232.8c0-0.2,0-0.5,0.1-0.7c0.1-0.2,0.3-0.4,0.5-0.5c0.2-0.1,0.4-0.2,0.7-0.1c0.2,0,0.4,0.1,0.6,0.2
			c0.2,0.1,0.3,0.3,0.4,0.6c0.1,0.2,0.1,0.5,0,0.7c-0.1,0.2-0.2,0.4-0.4,0.6c-0.2,0.2-0.4,0.2-0.6,0.3c-0.3,0-0.6-0.1-0.9-0.2
			C110.6,233.4,110.5,233.1,110.4,232.8L110.4,232.8z"/>
		<path class="st2" d="M99.9,232c0-0.2,0-0.5,0.1-0.7c0.1-0.2,0.3-0.4,0.5-0.5c0.2-0.1,0.4-0.2,0.7-0.1c0.2,0,0.4,0.1,0.6,0.2
			c0.2,0.1,0.3,0.3,0.4,0.6s0.1,0.5,0,0.7c-0.1,0.2-0.2,0.4-0.4,0.6c-0.2,0.1-0.4,0.2-0.6,0.3c-0.3,0-0.6,0-0.9-0.2
			C100.1,232.6,100,232.3,99.9,232L99.9,232z"/>
		<path class="st2" d="M114.3,230.5c0.1,0,0.2-0.1,0.3-0.1c0.1-0.1,0.2-0.3,0.3-0.5c0-0.2,0-0.4-0.1-0.5c-0.7-0.9-2.7-2.2-5.1-0.6
			c-0.2,0.1-0.3,0.3-0.3,0.4s0,0.4,0.1,0.5c0.1,0.2,0.3,0.3,0.4,0.3c0.2,0,0.4,0,0.5-0.1c2-1.3,3.2,0.2,3.3,0.3
			c0.1,0.1,0.2,0.2,0.3,0.2C114.1,230.5,114.2,230.5,114.3,230.5L114.3,230.5z"/>
		<path class="st2" d="M103.3,230c0.1,0,0.2-0.1,0.3-0.1c0.1-0.1,0.1-0.1,0.2-0.2c0-0.1,0.1-0.2,0.1-0.3c0-0.1,0-0.2,0-0.3
			c0-0.1-0.1-0.2-0.1-0.2c-0.7-0.9-2.7-2.2-5.1-0.6c-0.1,0-0.2,0.1-0.2,0.2c-0.1,0.1-0.1,0.2-0.1,0.2c0,0.1,0,0.2,0,0.3
			c0,0.1,0.1,0.2,0.1,0.3c0.1,0.1,0.1,0.1,0.2,0.2c0.1,0,0.2,0.1,0.3,0.1c0.1,0,0.2,0,0.3,0c0.1,0,0.2-0.1,0.2-0.1
			c2-1.3,3.2,0.2,3.2,0.3c0.1,0.1,0.2,0.2,0.3,0.2C103.1,230,103.2,230,103.3,230L103.3,230z"/>
		<path class="st2" d="M122.8,225.1l-2.3,8.8l-2.3-0.2l-2.7-10.6L122.8,225.1z"/>
		<path class="st1" d="M117.8,233.5c0.2-0.4,0.5-0.8,0.9-1c0.8-0.4,2.3-1,3.4-0.1c1.7,1.3-0.9,5.7-4.1,4.1
			C118,236.5,117,235.7,117.8,233.5z"/>
		<path class="st1" d="M105,237.7c0.4,0.1,0.7,0.1,1.1,0.1c0.4-0.1,0.7-0.2,1-0.4c0,0,0,0,0.1-0.1c0,0,0-0.1,0-0.1c0,0,0-0.1,0-0.1
			c0,0,0-0.1,0-0.1c0,0,0,0-0.1-0.1c0,0,0,0-0.1,0c0,0-0.1,0-0.1,0c0,0,0,0-0.1,0c-0.3,0.2-0.7,0.4-1.1,0.4c-0.4,0-0.8-0.1-1.1-0.4
			c-0.2-0.1-0.3-0.3-0.3-0.4s0.1-0.3,0.3-0.6c0.5-0.6,1.2-1.7,1.2-3.9c0,0,0-0.1,0-0.1c0,0,0-0.1,0-0.1c0,0,0,0-0.1-0.1
			c0,0-0.1,0-0.1,0s-0.1,0-0.1,0c0,0-0.1,0-0.1,0.1c0,0,0,0,0,0.1c0,0,0,0.1,0,0.1c0,2-0.7,3-1.2,3.6c-0.2,0.3-0.4,0.6-0.4,0.9
			c0,0.1,0.1,0.3,0.2,0.4c0.1,0.1,0.2,0.2,0.3,0.3C104.6,237.5,104.8,237.6,105,237.7z"/>
		<path class="st3" d="M109.9,239.2c0,0-4.6,1.2-7.8,0.1c0,0,1.2,3.5,4,3.5C108.9,242.8,109.9,239.2,109.9,239.2z"/>
		<path class="st2" d="M98.3,222.8c0,0-1.6,1.5-1.1,9c0,0-1.6-8.3-0.8-9.3C97.1,221.5,98.3,222.8,98.3,222.8z"/>
		<path class="st2" d="M123.3,222.2c-0.2-1.8-1.1-3.5-2-5.1c0.9,0.1,1.8,0.2,2.5-0.4c0.7-0.5,0.6-1.9-0.2-2.1
			c-0.5-0.1-1,0.2-1.5,0.3c-1.2,0.2-2-1-2.4-2.1c-0.4-1.1-0.7-2.4-1.8-2.9c-0.3-0.2-0.7-0.2-1.1-0.2c-0.2,1.4,0,2.8,0.6,4
			c-1.4-1.7-3.7-0.4-5.6-1.4c-1.5-0.8-2.8-3.9-4.4-3.4c-0.3,1.3,0.8,2.4,2.2,3.2c-2.9-0.7-5.9-0.9-8.9-0.7c-0.8,0-1.5,0.2-2.2,0.5
			c-0.4,0.2-0.7,0.4-0.9,0.7c-0.2,0.3-0.4,0.7-0.4,1.1c0,0.2,0,0.5,0.1,0.7c0.1,0.2,0.2,0.4,0.4,0.6c0.2,0.2,0.4,0.3,0.6,0.4
			c0.2,0.1,0.5,0.1,0.7,0.1c-1.5,0.7-2.9,1.4-4.2,2.5c-1.2,1.1-2.2,2.5-2.3,4.1c1.1,0,2.2-0.3,3.1-0.8c-0.6,0.6-1.2,1.5-0.8,2.4
			c0.2,0.3,0.4,0.5,0.7,0.7c0.3,0.2,0.6,0.3,0.9,0.3c0.7,0,1.3-0.1,1.9-0.4l9.5-3.2c-1.2,1.4-2.1,3-2.5,4.8c2.9-0.4,5.6-1.6,7.8-3.6
			c0.3,1.4,0.8,2.7,1.4,3.9c0.1,0.2,0.2,0.4,0.4,0.5c0.6,0.3,1.2-0.6,1.7-1.1c0.7-0.6,1.7-0.3,2.5,0.1c1.4,0.7,2.3,1.8,3.3,0.2
			C123.3,224.9,123.4,223.5,123.3,222.2z"/>
		<path class="st7" d="M324.1,345.3H97.2v216.8h226.9V345.3z"/>
		<path class="st6" d="M228.9,345.3h-28.3v216.8h28.3V345.3z"/>
		<path class="st6" d="M348.4,205.7c-6.5-32.3-4.4-53.2,6.4-64c5.7-5.7,16.4-11,34.8-4.4c19.5,7,26.6,19.6,29,29
			c4.1,15.6-0.6,35.1-13.9,58.1c-5.9,10.1-12.6,19.6-20.1,28.6l-12.1-10.4l-12.9,4.6C355,233.6,351.2,219.8,348.4,205.7L348.4,205.7
			z M382.4,157.4c-3.6-1.3-10.1-3.1-12.6-0.6c-1.3,1.3-7.6,9.7-0.6,44.5c2.1,10.6,4.9,20.7,7.1,27.9c11.1-15.5,26.1-41.2,21.8-57.5
			c-0.7-2.6-1.9-5-3.7-6.9C391.7,161.8,387.7,159.3,382.4,157.4z"/>
		<path class="st6" d="M378.1,248.8l-2.9-4.4L378.1,248.8l-8.7-13.4c9.9-6.2,20.2-11.5,31-16c24.6-10.1,44.5-12.1,59.4-6
			c8.9,3.7,20.5,12.4,24.8,32.7c4.1,19.2-2.7,29.1-9.1,33.9c-12.1,9.3-33.1,8.5-64.3-2.3c-13.5-4.8-26.7-10.4-39.5-16.8L378.1,248.8
			z M451.7,233.2c-15.5-6.4-43,5-59.9,13.9c6.8,3.1,16.3,7.2,26.5,10.7c33.7,11.7,42.9,6.6,44.4,5.5c2.9-2.2,1.9-8.8,1.2-12.6
			c-1.2-5.5-3.1-9.8-5.8-12.9C456.3,235.7,454.1,234.2,451.7,233.2L451.7,233.2z"/>
		<path class="st7" d="M264.2,192.5l154.6,177L456,337L301.4,160L264.2,192.5z"/>
		<path class="st6" d="M328.6,266.2l18.6,21.3l40.4-35.3L369,231L328.6,266.2z"/>
		<path class="st6" d="M375.2,244.4c0,0-28.8-16-42.9-8.3c-14.1,7.7-38.3,10.9-49,8.5l14.3-12.5l-14.4-10.6c0,0,26.1-3,39.9-10.4
			C337,203.6,365.5,228,375.2,244.4z"/>
		<path class="st6" d="M377.1,242.8c0,0,11.1,29.9-1.5,48.6c-12.7,18.7-57.2,34.7-41.9,61.5c0,0,5.8,10.2,19.4,17.1l-1.9-11.6
			l14.8-2.3c0,0-15.4-15.5-10.8-22.1c4.6-6.6,35.2-17.5,41.7-37.4c6.5-19.9-8.8-51.3-8.8-51.3L377.1,242.8z"/>
		<path class="st1" d="M264,367.8c0,0,5.9,1.9,8,2.7c2.1,0.8,4.7,0.1,4.6,1.4c-0.1,1.3-4.3,1.4-4.3,1.4s3,3.4,4,4.4
			c1.1,0.9,2.6,3,1.9,3.9c-0.6,0.8-5.4-3.9-5.4-3.9s3.7,4.4,3.3,5.3c-0.4,0.9-5.9-4-5.9-4s4.1,4.5,4.2,5.2c0,0.6-0.8,0.7-2.7-0.6
			c-1.2-0.9-2.4-1.9-3.4-3c0,0,2.7,3.4,2.9,3.9c0.2,0.5,0,1.4-2.5-0.8c-2.6-2.1-7.1-7.6-8.4-11.3L264,367.8z"/>
		<path class="st1" d="M332.5,261.4c0,0-1.5-6-1.8-8.2c-0.4-2.2-2.3-4.1-1.2-4.7c1.1-0.6,3.4,3,3.4,3s1.4-4.3,1.6-5.7
			c0.2-1.4,1.3-3.8,2.3-3.7c1,0.1-0.5,6.7-0.5,6.7s1.9-5.4,2.8-5.6c1-0.1-0.4,7.1-0.4,7.1s1.7-5.9,2.2-6.2c0.5-0.3,1,0.3,0.9,2.6
			c-0.1,1.5-0.4,3-0.8,4.5c0,0,1.5-4.1,1.9-4.5c0.4-0.4,1.1-0.8,0.6,2.5c-0.5,3.3-2.8,10.1-5.3,13.1L332.5,261.4z"/>
		<path class="st5" d="M274.9,293.2l-16.8-0.4c-3.8,0.4-7.5,1.6-10.8,3.6c-3.3,2-6,4.8-8.1,8.1c-5,8-11.3,19.4-15.2,30.6
			c-6.9,20.3,37.2,41.3,37.2,41.3l4.9-8.8L245,345.3h52.8l-0.3-25.3c0,0,44.3-29.3,46.4-59.4h-14.2c0,0-17.7,25.9-38.6,33.7
			L274.9,293.2z"/>
		<path class="st1" d="M281.4,269.4c0,0,1-1.8,1.9-1.2c2.4,1.5,0.4,4-1.1,4.6L281.4,269.4z"/>
		<path class="st1" d="M281.4,263.2c0-0.2,0-0.4,0-0.5c-0.2-2-0.8-4-1.9-5.8c-1-1.8-2.5-3.3-4.2-4.4c-1.7-1.1-3.6-1.9-5.7-2.2
			c-2-0.3-4.1-0.1-6,0.5c-2,0.6-3.7,1.6-5.2,3c-1.5,1.4-2.7,3.1-3.4,5c-0.8,1.9-1.1,3.9-0.9,6c0.1,2,0.7,4,1.7,5.8
			c1.6,3.1,2.9,5.7,4.3,7.9c2.3,3.6,3.3,7.8,3,12.1l-0.3,3.3c8.8,3.7,12.3-0.8,12.3-0.8l-0.4-6c0-0.4,0.1-0.8,0.3-1.1
			c0.2-0.3,0.6-0.5,1-0.5C286.2,283.8,281.8,267.8,281.4,263.2z"/>
		<path class="st2" d="M268,271.6c0-0.3-0.1-0.5-0.3-0.7c-0.2-0.2-0.4-0.3-0.6-0.4c-0.2-0.1-0.5-0.1-0.7,0c-0.2,0.1-0.5,0.2-0.6,0.4
			c-0.2,0.2-0.3,0.4-0.3,0.7c0,0.3,0,0.5,0.1,0.7c0.1,0.2,0.3,0.4,0.5,0.5c0.2,0.1,0.5,0.2,0.7,0.1c0.3,0,0.6-0.2,0.9-0.5
			C267.9,272.3,268,271.9,268,271.6L268,271.6z"/>
		<path class="st2" d="M279.1,268.3c0-0.3-0.1-0.5-0.3-0.7c-0.2-0.2-0.4-0.3-0.6-0.4c-0.2-0.1-0.5-0.1-0.7,0
			c-0.2,0.1-0.5,0.2-0.6,0.4c-0.2,0.2-0.3,0.4-0.3,0.7c0,0.3,0,0.5,0.1,0.7c0.1,0.2,0.3,0.4,0.5,0.5c0.2,0.1,0.5,0.2,0.7,0.2
			c0.2,0,0.3-0.1,0.5-0.1c0.1-0.1,0.3-0.2,0.4-0.3c0.1-0.1,0.2-0.3,0.2-0.4C279,268.6,279.1,268.5,279.1,268.3L279.1,268.3z"/>
		<path class="st2" d="M263.2,270c-0.1,0-0.3,0-0.4-0.1c-0.1,0-0.2-0.1-0.2-0.2c-0.1-0.1-0.1-0.2-0.1-0.3c0-0.1,0-0.2,0-0.3
			c0-0.1,0-0.2,0.1-0.3c0.5-1.1,2.3-2.9,5.3-1.8c0.2,0.1,0.3,0.2,0.4,0.4c0.1,0.2,0.1,0.4,0,0.6c-0.1,0.2-0.2,0.3-0.4,0.4
			c-0.2,0.1-0.4,0.1-0.6,0c-2.4-1-3.4,0.9-3.4,1c-0.1,0.1-0.1,0.2-0.2,0.3C263.5,270,263.4,270,263.2,270z"/>
		<path class="st2" d="M275,267c-0.1,0-0.3,0-0.4-0.1c-0.2-0.1-0.3-0.2-0.4-0.4c-0.1-0.2-0.1-0.4,0-0.6c0.5-1.1,2.4-2.9,5.3-1.8
			c0.2,0.1,0.3,0.2,0.4,0.4c0.1,0.2,0.1,0.4,0,0.6c-0.1,0.2-0.2,0.3-0.4,0.4c-0.2,0.1-0.4,0.1-0.6,0c-2.4-1-3.4,0.9-3.4,1
			c-0.1,0.1-0.1,0.2-0.2,0.3C275.2,266.9,275.1,267,275,267z"/>
		<path class="st7" d="M252.9,266.2l4.5,8.9l2.4-0.7l0.4-12.1L252.9,266.2z"/>
		<path class="st1" d="M260.2,274c-0.3-0.4-0.7-0.7-1.2-0.9c-1-0.3-2.7-0.6-3.7,0.7c-1.5,1.8,2.3,6,5.4,3.5
			C260.7,277.3,261.6,276.3,260.2,274z"/>
		<path class="st1" d="M274.9,275.6c-0.3,0.2-0.7,0.3-1.1,0.4c-0.4,0-0.8,0-1.2-0.2c-0.1,0-0.1-0.1-0.1-0.1c0-0.1,0-0.1,0-0.2
			c0-0.1,0.1-0.1,0.1-0.1c0.1,0,0.1,0,0.2,0c0.4,0.2,0.9,0.2,1.3,0.1c0.4-0.1,0.8-0.4,1.1-0.7c0.2-0.2,0.3-0.4,0.3-0.5
			c0-0.1-0.2-0.3-0.5-0.6c-0.6-0.6-1.7-1.5-2.2-3.9c0-0.1,0-0.1,0-0.2c0,0,0.1-0.1,0.1-0.1c0.1,0,0.1,0,0.2,0c0,0,0.1,0.1,0.1,0.1
			c0.5,2.2,1.4,3.1,2.1,3.6c0.3,0.3,0.6,0.6,0.6,0.9c0,0.1,0,0.3-0.1,0.4c-0.1,0.1-0.2,0.3-0.3,0.4
			C275.4,275.3,275.2,275.5,274.9,275.6z"/>
		<path class="st3" d="M270,278.4c0,0,5.2,0.2,8.4-1.7c0,0-0.5,4.1-3.4,4.7C272,282,270,278.4,270,278.4z"/>
		<path class="st7" d="M278.7,258c0,0,2.1,1.2,3.3,9.4c0,0-0.2-9.3-1.3-10.2C279.6,256.3,278.7,258,278.7,258z"/>
		<path class="st7" d="M256.4,249c2.7-3.1,7.7-2.8,11-5.3c-1,2.1-2.4,4-4.2,5.6l14.4-4.2c-1.5,1.5-3.1,2.9-4.9,4.1
			c3.7,0.3,7.5,0.3,11.3-0.1c0.4,0.6,0.1,1.3-0.1,2c-1.4,3.5-3.1,7.3-6.6,8.7c-1.1,0.4-2.2,0.6-3.4,0.6c-4.6,0.2-9.7-0.9-13.5,1.7
			c-1.8,1.2-4,5.4-6.5,4.8C251.7,266.4,248,258.5,256.4,249z"/>
		<path class="st2" d="M245,345.7c-0.1,0-0.1,0-0.2,0c0,0-0.1-0.1-0.1-0.1c-0.2-0.2-3.9-4.2-3.4-8c0.5-3.7,9.2-17.1,9.6-17.7
			c0.1-0.1,0.1-0.1,0.2-0.1c0.1,0,0.2,0,0.3,0.1s0.1,0.1,0.2,0.2c0,0.1,0,0.2,0,0.3c-0.1,0.1-9,13.8-9.4,17.4
			c-0.5,3.4,3.2,7.3,3.2,7.3c0.1,0.1,0.1,0.2,0.1,0.3c0,0.1,0,0.2-0.1,0.3c0,0-0.1,0.1-0.1,0.1C245.1,345.7,245,345.7,245,345.7z"/>
		<path class="st6" d="M266,250l-17.9-12.7l5,20.6C253.2,257.9,263.4,257.4,266,250z"/>
		<path class="st2" d="M246.5,235l-1.8-6.1l3.3,0.2l-0.3,5.5l5-4.2l1.3,3.5l-5.7,1.6l6.3,2.4l-1.4,2.5l-5-2.9l-0.9,5.6l-3.8-2.2
			l2.9-3.6l-6.9-0.7l1.8-3.1L246.5,235z"/>
		<path class="st3" d="M259.2,248c-0.4-0.3-0.9-0.4-1.5-0.3c-0.5,0-1,0.2-1.4,0.5c-0.4,0.3-0.7,0.7-0.9,1.2c-0.2,0.5-0.2,1-0.1,1.5
			c0.1,0.5,0.4,0.9,0.8,1.3c0.4,0.3,0.9,0.6,1.4,0.6c0.5,0.1,1,0,1.5-0.2c0.5-0.2,0.8-0.6,1.1-1c0.3-0.6,0.4-1.3,0.3-1.9
			C260.2,248.9,259.8,248.4,259.2,248z"/>
		<path class="st3" d="M255.4,244.3c0.4,0.2,0.8,0.3,1.3,0.3c0.4,0,0.9-0.1,1.3-0.3l-3.7-2.7c-0.1,0.5,0,1,0.2,1.5
			C254.6,243.6,255,244,255.4,244.3L255.4,244.3z"/>
		<path class="st3" d="M253,248.4c0.2-0.3,0.3-0.6,0.3-0.9c0-0.3,0-0.7-0.1-1c-0.1-0.3-0.2-0.6-0.4-0.9c-0.2-0.3-0.5-0.5-0.8-0.7
			c-0.3-0.2-0.7-0.3-1.1-0.3c-0.4,0-0.8,0-1.1,0.2l1.2,4.9c0.4,0,0.8-0.2,1.1-0.4C252.6,249,252.8,248.7,253,248.4L253,248.4z"/>
		<path class="st6" d="M123.2,220.6l4.5-21.5L111,211.9C111,211.9,115.4,221.1,123.2,220.6z"/>
		<path class="st8" d="M129.2,196.7l4.9-4.1l1.2,3.1l-5.1,1.9l5.9,2.9l-2.7,2.6l-3.8-4.6l0.3,6.7l-2.8-0.3l0.7-5.8l-5.5,1.4l0.5-4.4
			l4.5,1.2l-2.1-6.6l3.5,0.4L129.2,196.7z"/>
		<path class="st8" d="M122.3,213.5c0.1-0.5,0-1-0.3-1.5c-0.2-0.5-0.6-0.8-1-1.1c-0.4-0.2-1-0.4-1.5-0.3c-0.5,0-1,0.2-1.4,0.6
			c-0.4,0.3-0.7,0.7-0.8,1.2c-0.2,0.5-0.2,1,0,1.5s0.4,0.9,0.8,1.3c0.4,0.3,0.9,0.5,1.4,0.6c0.3,0,0.7,0,1-0.1
			c0.3-0.1,0.6-0.2,0.9-0.5c0.3-0.2,0.5-0.5,0.6-0.8S122.3,213.9,122.3,213.5L122.3,213.5z"/>
		<path class="st8" d="M124.3,208.6c0,0.4,0,0.9,0.2,1.3c0.2,0.4,0.4,0.8,0.8,1l0.9-4.5c-0.5,0.1-1,0.4-1.3,0.8
			C124.6,207.6,124.4,208,124.3,208.6z"/>
		<path class="st8" d="M119.5,208c0.7,0.1,1.4-0.1,1.9-0.5c0.5-0.4,0.9-1,1-1.7c0-0.4,0-0.8-0.1-1.1c-0.1-0.4-0.3-0.7-0.6-0.9
			l-4,3.1c0.2,0.3,0.5,0.6,0.8,0.8C118.8,207.8,119.1,208,119.5,208L119.5,208z"/>
		<path class="st3" d="M169.8,93.7l-1.6-3.5c5.2-2.4,5.8-4,5.9-4.4c0.1-1-1.6-2.5-3-3.7c-1.9-1.7-3.9-3.4-4.2-5.8
			c-0.1-0.8-0.1-1.5,0.2-2.3c0.2-0.7,0.6-1.4,1.1-2c2.6-2.9,8.3-2.7,8.9-2.7l-0.1,3.8l0.1-1.9l-0.1,1.9c-1.5-0.1-4.8,0.2-5.9,1.5
			c-0.1,0.2-0.3,0.3-0.3,0.5c-0.1,0.2-0.1,0.4,0,0.6c0.1,0.9,1.7,2.3,2.9,3.4c2.2,1.9,4.7,4.1,4.2,7.1
			C177.4,89,174.9,91.3,169.8,93.7z"/>
		<path class="st4" d="M38.6,355.1l2.4,3c-4.5,3.6-4.7,5.2-4.7,5.6c0.1,1,2.1,2,3.7,2.9c2.2,1.2,4.6,2.4,5.4,4.7
			c0.3,0.7,0.4,1.5,0.4,2.2c0,0.8-0.3,1.5-0.6,2.2c-1.9,3.4-7.4,4.6-8.1,4.7l-0.7-3.8l0.4,1.9l-0.4-1.9c1.4-0.3,4.6-1.3,5.5-2.8
			c0.1-0.2,0.2-0.4,0.2-0.6s0-0.4-0.1-0.6c-0.3-0.9-2.2-1.9-3.6-2.6c-2.6-1.4-5.5-2.9-5.7-5.9C32.2,361.4,34.1,358.6,38.6,355.1z"/>
		<path class="st4" d="M210.1,92.3l2.4,3c-4.5,3.6-4.7,5.2-4.7,5.6c0.1,1,2.1,2,3.7,2.9c2.2,1.2,4.6,2.4,5.4,4.7
			c0.3,0.7,0.4,1.5,0.4,2.2c0,0.8-0.3,1.5-0.6,2.2c-1.9,3.4-7.4,4.6-8.1,4.7l-0.7-3.8l0.4,1.9l-0.4-1.9c1.4-0.3,4.6-1.3,5.5-2.8
			c0.1-0.2,0.2-0.4,0.2-0.6c0-0.2,0-0.4-0.1-0.6c-0.3-0.9-2.2-1.9-3.6-2.6c-2.6-1.4-5.5-2.9-5.7-5.9
			C203.8,98.6,205.6,95.8,210.1,92.3z"/>
		<path class="st8" d="M0.7,292.6L0,288.8c5.6-1.1,6.6-2.4,6.8-2.8c0.4-0.9-0.9-2.8-2-4.3c-1.4-2.1-2.9-4.3-2.7-6.6
			c0.1-0.8,0.3-1.5,0.7-2.2c0.4-0.7,0.9-1.2,1.6-1.6c3.2-2.1,8.7-0.6,9.3-0.4l-1.1,3.7l0.5-1.8l-0.5,1.8c-1.4-0.4-4.7-1-6.1,0
			c-0.2,0.1-0.3,0.3-0.4,0.5c-0.1,0.2-0.2,0.4-0.2,0.6c-0.1,0.9,1.1,2.6,2,4c1.6,2.4,3.5,5.1,2.4,7.9C9.3,289.9,6.3,291.5,0.7,292.6
			z"/>
		<path class="st6" d="M320.2,116.1l-0.7-3.8c5.6-1.1,6.6-2.4,6.8-2.8c0.4-0.9-0.9-2.8-2-4.3c-1.4-2.1-2.9-4.3-2.7-6.6
			c0.1-0.8,0.3-1.5,0.7-2.2c0.4-0.7,0.9-1.2,1.6-1.6c3.2-2.1,8.7-0.6,9.3-0.4l-1.1,3.7l0.5-1.8l-0.5,1.8c-1.4-0.4-4.7-1-6.1,0
			c-0.2,0.1-0.3,0.3-0.4,0.5c-0.1,0.2-0.2,0.4-0.2,0.6c-0.1,0.9,1.1,2.6,2,4c1.6,2.4,3.5,5.1,2.4,7.9
			C328.8,113.5,325.9,115.1,320.2,116.1z"/>
		<path class="st4" d="M369.2,424.5l-0.7-3.8c5.6-1.1,6.6-2.4,6.8-2.8c0.4-0.9-0.9-2.8-2-4.3c-1.4-2.1-2.9-4.3-2.7-6.6
			c0.1-0.8,0.3-1.5,0.7-2.2c0.4-0.7,0.9-1.2,1.6-1.6c3.2-2.1,8.7-0.6,9.3-0.4l-1.1,3.7l0.5-1.8l-0.5,1.8c-1.4-0.4-4.7-1-6.1,0
			c-0.2,0.1-0.3,0.3-0.4,0.5c-0.1,0.2-0.2,0.4-0.2,0.6c-0.1,0.9,1.1,2.6,2,4c1.6,2.4,3.5,5.1,2.4,7.9
			C377.8,421.8,374.8,423.4,369.2,424.5z"/>
		<path class="st2" d="M62.2,224.6c-0.1,0-0.2,0-0.2-0.1c-0.1-0.1-0.1-0.1-0.1-0.2c-2.2-7.1-6.5-7.7-11.2-8.3
			c-4.4-0.6-8.9-1.2-11.4-7.5c-2.3-5.9,0.6-9.1,3.9-12.9c4.1-4.6,8.7-9.7,5.5-21.4c-2.8-10.3-10.4-19.2-10.5-19.3
			c0,0-0.1-0.1-0.1-0.1c0,0,0-0.1,0-0.2c0-0.1,0-0.1,0-0.1c0,0,0.1-0.1,0.1-0.1c0.1-0.1,0.2-0.1,0.3-0.1c0.1,0,0.2,0.1,0.3,0.1
			c0.1,0.1,7.8,9.1,10.7,19.6c3.3,12.1-1.6,17.6-5.6,22.1c-3.3,3.7-5.9,6.6-3.8,12c2.3,5.9,6.4,6.5,10.8,7.1
			c4.7,0.6,9.5,1.3,11.8,8.9c0,0,0,0.1,0,0.2c0,0.1,0,0.1,0,0.1c0,0-0.1,0.1-0.1,0.1c0,0-0.1,0.1-0.1,0.1
			C62.3,224.6,62.2,224.6,62.2,224.6L62.2,224.6z"/>
		<path class="st6" d="M55.1,117.5c-1.4-6.3-5.3-11.8-10.8-15.2c-5.5-3.5-12.1-4.6-18.4-3.2c-6.3,1.4-11.8,5.3-15.2,10.8
			c-3.5,5.5-4.6,12.1-3.2,18.4c3,13.1,17.8,29.4,30.9,26.4S58,130.6,55.1,117.5z"/>
		<path class="st6" d="M41.6,153.5c0,0,3.2,1.6,3.4,2.4c0.2,0.8-0.5,0.9-2.5,1.5c-2.1,0.6-1.1,0.1-3,1.4c-1.9,1.3-6.2-1-6.2-1l2.8-3
			L41.6,153.5z"/>
		<path class="st2" d="M379.6,196.9c-0.1,0-0.1,0-0.2-0.1c-4.9-3.1-6.8-10.2-3.9-15.3c2.7-4.9,8.2-6.7,13.5-8.5
			c4.5-1.5,9.2-3.1,12.2-6.5c3.9-4.5,4.2-12,0.6-17.2c-1.3-1.8-2.9-3.3-4.5-4.8c-0.8-0.8-1.7-1.6-2.5-2.4c-3.9-4.1-6.1-8.8-6.3-13.4
			c-0.2-5.5,2.9-10.5,7.4-12.3c2.1-0.8,4.3-0.9,6.5-1c1.4,0,2.9-0.2,4.3-0.4c2.3-0.4,4.4-1.8,5.5-3.5c0.3-0.5,0.5-1,0.6-1.6
			s0.1-1.1-0.1-1.7c0-0.1,0-0.2,0-0.3c0.1-0.1,0.1-0.2,0.2-0.2c0.1,0,0.2,0,0.3,0c0.1,0.1,0.2,0.1,0.2,0.2c0.2,0.7,0.2,1.3,0.1,2
			c-0.1,0.7-0.4,1.3-0.8,1.9c-1.2,1.9-3.5,3.4-6,3.9c-1.5,0.2-2.9,0.4-4.4,0.4c-2.2,0.1-4.3,0.2-6.3,1c-4.2,1.6-7.1,6.5-6.9,11.5
			c0.1,4.4,2.3,8.9,6.1,12.8c0.8,0.8,1.7,1.6,2.5,2.4c1.6,1.5,3.3,3,4.6,4.9c3.9,5.5,3.6,13.3-0.6,18.1c-3.2,3.6-7.9,5.2-12.5,6.7
			c-5.4,1.8-10.5,3.5-13,8.1c-2.7,4.7-1,11.4,3.6,14.2c0,0,0.1,0.1,0.1,0.1c0,0,0.1,0.1,0.1,0.1c0,0.1,0,0.1,0,0.2
			c0,0.1,0,0.1-0.1,0.1c0,0.1-0.1,0.1-0.1,0.1C379.8,196.9,379.7,196.9,379.6,196.9L379.6,196.9z"/>
		<path class="st8" d="M445,92.2c1.3-2.9,2-6.1,2.1-9.3c0.1-3.2-0.5-6.4-1.6-9.4c-1.2-3-2.9-5.8-5.1-8.1s-4.9-4.2-7.9-5.5
			c-3-1.3-6.1-2-9.4-2c-3.2,0-6.4,0.5-9.4,1.7c-3,1.2-5.7,3-8,5.2c-2.3,2.3-4.1,5-5.4,7.9c-5.4,12.3-3,34.2,9.4,39.6
			C422,117.8,439.6,104.6,445,92.2z"/>
		<path class="st5" d="M412.8,113.3c0,0,1.7,3.2,1.3,3.9c-0.3,0.8-0.9,0.5-2.9-0.2c-2-0.7-0.9-0.6-3.2-0.7c-2.3-0.1-4.4-4.5-4.4-4.5
			l4.1-0.8L412.8,113.3z"/>
		<path class="st2" d="M120.1,136.8L120.1,136.8c-4.1-0.5-7.3-4.6-7-8.7c0.3-3.9,3.3-6.6,6.1-9.3c2.4-2.2,4.9-4.6,5.8-7.6
			c1.2-3.9-0.8-8.7-4.5-10.8c-1.3-0.7-2.7-1.3-4.2-1.7c-0.8-0.3-1.5-0.5-2.3-0.8c-3.7-1.5-6.4-3.8-7.9-6.7c-1.7-3.4-1.2-7.6,1.2-10
			c1.1-1.1,2.5-1.8,3.8-2.5c0.9-0.4,1.8-0.9,2.6-1.5c1.3-0.9,2.2-2.4,2.4-3.7c0.1-0.4,0.1-0.8,0-1.1c-0.1-0.4-0.3-0.7-0.5-1
			c0,0-0.1-0.1-0.1-0.1c0-0.1,0-0.1,0-0.2c0-0.1,0-0.1,0-0.2c0,0,0.1-0.1,0.1-0.1c0,0,0.1-0.1,0.1-0.1s0.1,0,0.2,0
			c0.1,0,0.1,0,0.2,0.1c0,0,0.1,0.1,0.1,0.1c0.3,0.4,0.5,0.8,0.6,1.3c0.1,0.5,0.1,1,0.1,1.4c-0.2,1.5-1.3,3.2-2.7,4.2
			c-0.9,0.6-1.8,1.1-2.7,1.5c-1.4,0.7-2.6,1.3-3.6,2.4c-2.1,2.2-2.6,6-1,9.1c1.3,2.7,4,4.9,7.4,6.3c0.7,0.3,1.5,0.5,2.3,0.8
			c1.5,0.4,2.9,1,4.3,1.8c4.1,2.4,6.2,7.4,4.9,11.7c-1,3.2-3.5,5.6-6,7.9c-2.9,2.7-5.6,5.2-5.9,8.8c-0.3,3.7,2.6,7.3,6.3,7.8
			c0.1,0,0.2,0.1,0.2,0.1c0.1,0.1,0.1,0.2,0.1,0.3c0,0.1,0,0.2-0.1,0.3S120.2,136.8,120.1,136.8L120.1,136.8z"/>
		<path class="st2" d="M131.5,52c-0.1-4.4-2-8.7-5.2-11.7c-3.2-3.1-7.5-4.8-11.9-4.7c-4.4,0.1-8.7,1.9-11.8,5.1
			c-3.1,3.2-4.8,7.4-4.8,11.9c0.1,9.3,7.9,22.4,17.2,22.3C124.3,74.6,131.7,61.3,131.5,52z"/>
		<path class="st2" d="M117.2,74.5c0,0,1.9,1.5,2,2.1c0,0.6-0.4,0.6-1.9,0.7c-1.5,0.1-0.7-0.1-2.2,0.5c-1.5,0.6-4.1-1.6-4.1-1.6
			l2.3-1.7L117.2,74.5z"/>
		<path class="st2" d="M230.7,135.4c-0.1,0-0.2,0-0.3-0.1c-0.1-0.1-0.1-0.2-0.1-0.3c0-0.1,0-0.2,0.1-0.3c0.1-0.1,0.2-0.1,0.3-0.1
			c7.3-0.1,13.9-3.2,17.7-8.3c4.1-5.6,4.1-13.8,0-18.6c-1.1-1.2-2.4-2.4-3.7-3.4c-0.9-0.7-1.9-1.5-2.7-2.3c-2.6-2.5-3.9-5.4-3.4-7.9
			c0.6-3.5,3.9-5.4,7-7.2c3.2-1.8,6.2-3.6,6.6-6.7c0.4-3.1-1.9-5.8-4-8.3l-0.3-0.4c-1.5-1.7-4.7-6.1-2.6-9.7
			c0.9-1.5,2.4-2.4,3.9-3.3c1.8-1.1,3.6-2.1,3.8-4c0-0.1,0-0.1,0-0.2c0,0,0.1-0.1,0.1-0.1c0,0,0.1-0.1,0.1-0.1c0.1,0,0.1,0,0.2,0
			c0.1,0,0.2,0.1,0.3,0.1c0.1,0.1,0.1,0.2,0.1,0.3c-0.2,2.3-2.2,3.4-4.1,4.6c-1.4,0.8-2.9,1.7-3.7,3c-1.9,3.2,1.1,7.2,2.5,8.8
			l0.3,0.4c2.2,2.6,4.7,5.5,4.2,8.9c-0.5,3.6-3.8,5.5-7,7.3c-3.1,1.8-6.1,3.5-6.7,6.6c-0.6,3.3,2,6.1,3.2,7.2
			c0.8,0.8,1.8,1.5,2.7,2.2c1.4,1,2.7,2.2,3.8,3.5c4.4,5.1,4.4,13.7,0,19.6C245.1,132.1,238.2,135.4,230.7,135.4L230.7,135.4z"/>
		<path class="st4" d="M281.7,28.7c0.6-3.2,0.6-6.5,0-9.6c-0.6-3.2-1.9-6.2-3.7-8.9c-1.8-2.7-4.2-5-6.9-6.7c-2.7-1.8-5.8-3-9-3.5
			c-3.2-0.6-6.5-0.5-9.6,0.2c-3.2,0.7-6.2,2.1-8.8,3.9c-2.6,1.9-4.9,4.3-6.6,7c-1.7,2.8-2.8,5.8-3.3,9c-2.4,13.2,5,34,18.2,36.3
			C265.2,58.8,279.3,41.9,281.7,28.7z"/>
		<path class="st4" d="M255.2,56.6c0,0,2.4,2.7,2.2,3.5c-0.1,0.8-0.8,0.7-2.9,0.4c-2.1-0.2-1-0.3-3.3,0.1c-2.3,0.4-5.4-3.3-5.4-3.3
			l3.8-1.7L255.2,56.6z"/>
	</g>
</g>
</svg>
