<svg width="190" height="60" viewBox="0 0 190 60" fill="none" xmlns="http://www.w3.org/2000/svg">
<g clip-path="url(#clip0_57_3485)">
<path d="M182.421 0.48291H7.45378C3.58851 0.48291 0.455078 3.79906 0.455078 7.88974V52.3307C0.455078 56.4214 3.58851 59.7376 7.45378 59.7376H182.421C186.287 59.7376 189.42 56.4214 189.42 52.3307V7.88974C189.42 3.79906 186.287 0.48291 182.421 0.48291Z" fill="black"/>
<path d="M64.8431 18.8674C64.0616 19.1397 63.2381 19.2819 62.4076 19.288C61.868 19.3369 61.3238 19.271 60.8132 19.095C60.3026 18.9189 59.8377 18.637 59.4512 18.2688C59.0646 17.9006 58.7657 17.455 58.5752 16.9632C58.3847 16.4714 58.3073 15.9452 58.3484 15.4214C58.3309 14.8803 58.4313 14.3417 58.6431 13.8406C58.8549 13.3396 59.1732 12.8875 59.5773 12.5137C59.9814 12.1399 60.4623 11.8529 60.9886 11.6714C61.5148 11.4898 62.0746 11.4178 62.6316 11.46C63.3069 11.451 63.9775 11.5708 64.6052 11.8127L64.3532 12.6267C63.8008 12.3981 63.2041 12.2871 62.6036 12.3011C62.1777 12.2684 61.7496 12.3256 61.3488 12.4689C60.948 12.6121 60.584 12.8378 60.282 13.1306C59.9799 13.4234 59.747 13.7761 59.5992 14.1646C59.4515 14.5531 59.3924 14.968 59.4262 15.3807C59.3853 15.7852 59.435 16.1934 59.5719 16.5775C59.7088 16.9616 59.9296 17.3125 60.2194 17.6062C60.5091 17.8999 60.8609 18.1295 61.2506 18.2792C61.6404 18.429 62.0589 18.4954 62.4776 18.474C62.9552 18.5081 63.4345 18.4338 63.8773 18.2569V15.9777H62.2116V15.1365H64.8431V18.8674Z" fill="white" stroke="white" stroke-width="0.279948" stroke-miterlimit="10"/>
<path d="M70.6942 15.612H67.6427V18.3254H71.0581V19.2072H66.6069V11.542H70.8761V12.4238H67.6427V14.8387H70.7082L70.6942 15.612Z" fill="white" stroke="white" stroke-width="0.279948" stroke-miterlimit="10"/>
<path d="M74.3053 12.4237H71.8418V11.5825H77.6927V12.4237H75.3272V19.207H74.3053V12.4237Z" fill="white" stroke="white" stroke-width="0.279948" stroke-miterlimit="10"/>
<path d="M82.606 11.542V19.2072H81.6401V11.542H82.606Z" fill="white" stroke="white" stroke-width="0.279948" stroke-miterlimit="10"/>
<path d="M86.1192 12.4237H83.7117V11.5825H89.5766V12.4237H87.155V19.207H86.1192V12.4237Z" fill="white" stroke="white" stroke-width="0.279948" stroke-miterlimit="10"/>
<path d="M100.158 15.299C100.158 17.931 98.5068 19.369 96.4912 19.369C95.9874 19.3623 95.4907 19.2538 95.0326 19.0507C94.5746 18.8475 94.1652 18.554 93.8307 18.1889C93.4962 17.8238 93.2438 17.3952 93.0898 16.9303C92.9357 16.4654 92.8832 15.9746 92.9358 15.489C92.8752 14.9835 92.9243 14.4714 93.08 13.9854C93.2357 13.4994 93.4946 13.0504 93.8399 12.6671C94.1853 12.2839 94.6095 11.9748 95.0854 11.7599C95.5612 11.5449 96.0782 11.4288 96.6031 11.4189C97.1082 11.4215 97.607 11.5272 98.0672 11.729C98.5273 11.9308 98.9385 12.2243 99.2738 12.5903C99.6092 12.9563 99.8613 13.3867 100.014 13.8534C100.166 14.3201 100.215 14.8126 100.158 15.299ZM94.0276 15.4211C94.0276 17.0627 94.9374 18.5279 96.5471 18.5279C98.1568 18.5279 99.0807 17.0763 99.0807 15.3397C99.0807 13.8203 98.2548 12.2329 96.5611 12.2329C94.8675 12.2329 94.0276 13.7796 94.0276 15.4211Z" fill="white" stroke="white" stroke-width="0.279948" stroke-miterlimit="10"/>
<path d="M101.726 19.2072V11.542H102.832L105.436 15.4221C105.953 16.2031 106.42 17.0141 106.835 17.8505C106.751 16.8194 106.723 15.8969 106.723 14.703V11.542H107.689V19.2072H106.653L104.148 15.3135C103.589 14.4952 103.084 13.6433 102.636 12.763C102.636 13.7262 102.636 14.6488 102.636 15.924V19.2072H101.726Z" fill="white" stroke="white" stroke-width="0.279948" stroke-miterlimit="10"/>
<path d="M95.8336 31.078C94.6542 31.0807 93.5022 31.4222 92.5231 32.0595C91.5441 32.6968 90.782 33.6012 90.3332 34.6582C89.8845 35.7153 89.7692 36.8776 90.002 37.9982C90.2348 39.1188 90.8052 40.1473 91.6411 40.9536C92.477 41.76 93.5408 42.308 94.698 42.5284C95.8552 42.7487 97.0539 42.6316 98.1424 42.1917C99.2309 41.7518 100.16 41.0089 100.813 40.057C101.466 39.1051 101.813 37.9869 101.81 36.8438C101.822 36.0813 101.675 35.3243 101.378 34.618C101.082 33.9117 100.641 33.2704 100.084 32.7324C99.5259 32.1945 98.8622 31.7707 98.1321 31.4865C97.4019 31.2023 96.6202 31.0633 95.8336 31.078ZM95.8336 40.344C95.1107 40.393 94.3894 40.2301 93.7633 39.8765C93.1372 39.5229 92.6354 38.9949 92.323 38.3612C92.0107 37.7275 91.9022 37.0173 92.0118 36.3231C92.1214 35.6288 92.4439 34.9826 92.9375 34.4683C93.431 33.9541 94.0727 33.5957 94.7792 33.4396C95.4857 33.2836 96.2243 33.3371 96.899 33.5934C97.5737 33.8496 98.1533 34.2966 98.5624 34.8763C98.9715 35.4559 99.1912 36.1415 99.1929 36.8438C99.2155 37.2888 99.1459 37.7337 98.9882 38.1522C98.8305 38.5707 98.588 38.9544 98.2749 39.2806C97.9618 39.6069 97.5845 39.869 97.1652 40.0517C96.7459 40.2343 96.2931 40.3337 95.8336 40.344ZM82.788 31.078C81.6086 31.0807 80.4566 31.4222 79.4775 32.0595C78.4985 32.6968 77.7364 33.6012 77.2876 34.6582C76.8389 35.7153 76.7236 36.8776 76.9564 37.9982C77.1892 39.1188 77.7596 40.1473 78.5955 40.9536C79.4314 41.76 80.4952 42.308 81.6524 42.5284C82.8096 42.7487 84.0083 42.6316 85.0968 42.1917C86.1853 41.7518 87.1148 41.0089 87.7677 40.057C88.4206 39.1051 88.7676 37.9869 88.7649 36.8438C88.7763 36.0813 88.6293 35.3243 88.3326 34.618C88.0359 33.9117 87.5956 33.2704 87.0379 32.7324C86.4803 32.1945 85.8166 31.7707 85.0865 31.4865C84.3563 31.2023 83.5747 31.0633 82.788 31.078ZM82.788 40.344C82.0651 40.393 81.3438 40.2301 80.7177 39.8765C80.0916 39.5229 79.5898 38.9949 79.2775 38.3612C78.9651 37.7275 78.8567 37.0173 78.9662 36.3231C79.0758 35.6288 79.3983 34.9826 79.8919 34.4683C80.3854 33.9541 81.0271 33.5957 81.7337 33.4396C82.4402 33.2836 83.1788 33.3371 83.8534 33.5934C84.5281 33.8496 85.1077 34.2966 85.5168 34.8763C85.9259 35.4559 86.1456 36.1415 86.1474 36.8438C86.1699 37.2888 86.1003 37.7337 85.9426 38.1522C85.7849 38.5707 85.5424 38.9544 85.2293 39.2806C84.9162 39.6069 84.5389 39.869 84.1196 40.0517C83.7003 40.2343 83.2475 40.3337 82.788 40.344ZM67.2788 32.8552V35.2972H73.3257C73.2309 36.4474 72.7376 37.5327 71.926 38.3769C71.3194 38.9759 70.5899 39.4448 69.7845 39.7532C68.9792 40.0617 68.116 40.2029 67.2509 40.1677C65.4689 40.1677 63.76 39.4816 62.5 38.2603C61.24 37.0391 60.5321 35.3827 60.5321 33.6556C60.5321 31.9286 61.24 30.2722 62.5 29.0509C63.76 27.8297 65.4689 27.1436 67.2509 27.1436C68.9592 27.119 70.6087 27.7478 71.842 28.8937L73.6197 27.1708C72.7854 26.371 71.7949 25.7407 70.7061 25.3167C69.6172 24.8927 68.4521 24.6836 67.2788 24.7016C66.0345 24.6547 64.7931 24.8517 63.6292 25.2809C62.4653 25.71 61.4027 26.3625 60.5052 27.1993C59.6076 28.036 58.8936 29.0397 58.4059 30.1503C57.9181 31.2608 57.6667 32.4554 57.6667 33.6624C57.6667 34.8694 57.9181 36.064 58.4059 37.1746C58.8936 38.2852 59.6076 39.2889 60.5052 40.1256C61.4027 40.9623 62.4653 41.6148 63.6292 42.044C64.7931 42.4732 66.0345 42.6702 67.2788 42.6232C68.4762 42.6696 69.6701 42.4699 70.7823 42.0374C71.8944 41.6048 72.8995 40.9491 73.7316 40.1134C75.2015 38.5484 75.9848 36.49 75.9152 34.3747C75.9203 33.8656 75.8781 33.357 75.7893 32.8552H67.2788ZM130.701 34.7545C130.336 33.7136 129.653 32.8047 128.744 32.1482C127.834 31.4916 126.74 31.1184 125.606 31.078C124.84 31.0765 124.083 31.2273 123.379 31.521C122.676 31.8146 122.043 32.245 121.518 32.7854C120.993 33.3258 120.588 33.9648 120.328 34.6628C120.069 35.3609 119.959 36.1032 120.007 36.8438C119.995 38.0823 120.397 39.2912 121.152 40.2901C121.908 41.289 122.976 42.0243 124.198 42.386C125.42 42.7478 126.73 42.7166 127.933 42.2972C129.135 41.8779 130.165 41.0927 130.869 40.0591L128.839 38.7025C128.537 39.1912 128.108 39.5949 127.595 39.8733C127.081 40.1517 126.502 40.2953 125.914 40.2898C125.307 40.3141 124.707 40.1599 124.193 39.8475C123.678 39.5352 123.273 39.0793 123.031 38.5397L130.995 35.3515L130.701 34.7545ZM122.583 36.681C122.554 36.2596 122.613 35.837 122.755 35.4378C122.897 35.0386 123.12 34.671 123.411 34.3564C123.702 34.0418 124.054 33.7866 124.448 33.6057C124.842 33.4248 125.269 33.3219 125.704 33.3029C126.155 33.2762 126.604 33.3791 126.995 33.5988C127.386 33.8184 127.701 34.1449 127.902 34.5375L122.583 36.681ZM116.116 42.2705H118.733V25.3121H116.116V42.2705ZM111.833 32.3668H111.735C111.344 31.9352 110.861 31.5905 110.32 31.3564C109.779 31.1222 109.192 31.0041 108.599 31.0101C107.07 31.082 105.627 31.7216 104.571 32.7963C103.514 33.871 102.925 35.2984 102.925 36.7828C102.925 38.2671 103.514 39.6945 104.571 40.7692C105.627 41.8439 107.07 42.4835 108.599 42.5554C109.193 42.567 109.781 42.4513 110.323 42.2168C110.865 41.9823 111.347 41.6347 111.735 41.1987H111.833V42.0263C111.833 44.2377 110.615 45.418 108.655 45.418C108.001 45.4041 107.365 45.2019 106.829 44.8371C106.293 44.4724 105.881 43.9615 105.646 43.3694L103.378 44.2784C103.797 45.2989 104.526 46.1722 105.469 46.7826C106.411 47.393 107.522 47.712 108.655 47.6972C111.721 47.6972 114.254 45.9471 114.254 41.6871V31.4171H111.833V32.3668ZM108.823 40.344C107.906 40.2886 107.045 39.8964 106.416 39.2474C105.787 38.5983 105.437 37.7412 105.437 36.8506C105.437 35.96 105.787 35.1029 106.416 34.4538C107.045 33.8048 107.906 33.4126 108.823 33.3572C109.271 33.3759 109.711 33.4819 110.116 33.6687C110.521 33.8556 110.884 34.1195 111.181 34.4448C111.479 34.7701 111.706 35.1501 111.85 35.5623C111.993 35.9744 112.049 36.4102 112.015 36.8438C112.053 37.2789 112 37.717 111.858 38.1315C111.717 38.5461 111.49 38.9285 111.191 39.2557C110.893 39.5829 110.529 39.848 110.122 40.0351C109.715 40.2222 109.273 40.3273 108.823 40.344ZM142.963 25.3121H136.692V42.2705H139.31V35.8399H142.963C143.709 35.8918 144.458 35.7943 145.163 35.5533C145.869 35.3123 146.515 34.933 147.063 34.4391C147.61 33.9452 148.047 33.3473 148.345 32.6827C148.644 32.018 148.798 31.3009 148.798 30.576C148.798 29.8511 148.644 29.134 148.345 28.4693C148.047 27.8047 147.61 27.2068 147.063 26.7129C146.515 26.219 145.869 25.8397 145.163 25.5987C144.458 25.3577 143.709 25.2602 142.963 25.3121ZM142.963 33.4521H139.31V27.6727H143.019C143.412 27.6727 143.802 27.7478 144.165 27.8937C144.529 28.0396 144.859 28.2535 145.137 28.5231C145.415 28.7927 145.636 29.1127 145.786 29.465C145.937 29.8172 146.014 30.1947 146.014 30.576C146.014 30.9573 145.937 31.3348 145.786 31.687C145.636 32.0393 145.415 32.3593 145.137 32.6289C144.859 32.8985 144.529 33.1124 144.165 33.2583C143.802 33.4042 143.412 33.4793 143.019 33.4793L142.963 33.4521ZM159.116 31.0237C158.163 30.9667 157.213 31.1818 156.385 31.6424C155.556 32.1029 154.885 32.7887 154.455 33.6149L156.764 34.5511C156.998 34.1432 157.348 33.8096 157.773 33.5906C158.197 33.3715 158.678 33.2763 159.158 33.3165C159.49 33.2789 159.827 33.3058 160.148 33.3956C160.47 33.4854 160.769 33.6364 161.03 33.8398C161.291 34.0431 161.507 34.2947 161.666 34.5798C161.825 34.865 161.924 35.1781 161.957 35.5007V35.6635C161.116 35.2347 160.179 35.0112 159.228 35.0123C156.736 35.0123 154.189 36.369 154.189 38.8381C154.213 39.363 154.347 39.8776 154.58 40.3516C154.814 40.8255 155.144 41.2491 155.55 41.5971C155.956 41.9451 156.43 42.2105 156.944 42.3774C157.458 42.5444 158.002 42.6095 158.542 42.569C159.199 42.6042 159.853 42.4695 160.439 42.1786C161.024 41.8878 161.519 41.4513 161.873 40.9138H161.957V42.2705H164.477V35.7449C164.477 32.7738 162.153 31.0508 159.172 31.0508L159.116 31.0237ZM158.794 40.3169C157.94 40.3169 156.75 39.8963 156.75 38.8788C156.75 37.5222 158.234 37.0609 159.55 37.0609C160.381 37.041 161.203 37.2378 161.929 37.6307C161.841 38.3675 161.481 39.0484 160.915 39.5473C160.349 40.0462 159.615 40.3293 158.85 40.344L158.794 40.3169ZM173.659 31.4171L170.664 38.7703H170.58L167.472 31.4171H164.673L169.334 41.7007L166.674 47.4123H169.404L176.571 31.4171H173.659ZM150.144 42.2705H152.747V25.3121H150.144V42.2705Z" fill="white"/>
<path d="M29.4578 27.917L14.5505 43.2474C14.7134 43.8272 15.0116 44.363 15.4221 44.8134C15.8326 45.2638 16.3444 45.6167 16.918 45.8448C17.4916 46.073 18.1116 46.1703 18.7302 46.1292C19.3487 46.0881 19.9493 45.9098 20.4854 45.608L37.2823 36.2198L29.4578 27.917Z" fill="#EA4335"/>
<path d="M44.5329 25.3117L37.2822 21.2417L29.1357 28.2828L37.3102 36.2194L44.5189 32.1493C45.1597 31.8167 45.6954 31.3218 46.0688 30.7173C46.4423 30.1129 46.6395 29.4215 46.6395 28.717C46.6395 28.0124 46.4423 27.3211 46.0688 26.7166C45.6954 26.1121 45.1597 25.6172 44.5189 25.2846L44.5329 25.3117Z" fill="#FBBC04"/>
<path d="M14.5503 14.1602C14.4763 14.4806 14.4434 14.8087 14.4524 15.137V42.2704C14.4548 42.6095 14.5018 42.9468 14.5923 43.2743L29.9895 28.3509L14.5503 14.1602Z" fill="#4285F4"/>
<path d="M29.5698 28.7036L37.2823 21.2284L20.4854 11.8131C19.8544 11.4495 19.134 11.2573 18.3998 11.2568C17.5143 11.2593 16.6541 11.5433 15.9511 12.0653C15.2482 12.5873 14.7414 13.3185 14.5085 14.1465L29.5698 28.7036Z" fill="#34A853"/>
</g>
<defs>
<clipPath id="clip0_57_3485">
<rect width="188.965" height="59.2547" fill="white" transform="translate(0.455078 0.48291)"/>
</clipPath>
</defs>
</svg>
