<svg width="190" height="62" viewBox="0 0 190 62" fill="none" xmlns="http://www.w3.org/2000/svg">
<g clip-path="url(#clip0_57_3499)">
<path d="M12.623 61.4666H11.1763C10.1708 61.484 9.16553 61.4195 8.17048 61.2737C7.23212 61.0896 6.32707 60.7645 5.48612 60.3093C4.65703 59.9016 3.90187 59.3584 3.25183 58.7019C2.59456 58.0464 2.0513 57.2858 1.64443 56.4515C1.21635 55.612 0.918258 54.7123 0.760358 53.7832C0.596936 52.7894 0.510949 51.7845 0.503174 50.7774C0.503174 50.4398 0.503174 49.2986 0.503174 49.2986V12.1515C0.503174 12.1515 0.503174 11.0424 0.503174 10.7209C0.510297 9.7138 0.596288 8.70878 0.760358 7.71508C0.907498 6.77527 1.20035 5.86417 1.62836 5.01464C2.03177 4.17827 2.57542 3.41715 3.23576 2.76428C3.89725 2.11416 4.6566 1.57177 5.48612 1.15688C6.32566 0.728799 7.22535 0.430709 8.15441 0.272809C9.15348 0.108556 10.1639 0.0225664 11.1763 0.015625H179.294C180.296 0.0241019 181.296 0.110087 182.284 0.272809C183.218 0.434085 184.122 0.731973 184.969 1.15688C186.636 2.0003 187.992 3.35107 188.842 5.01464C189.261 5.85126 189.553 6.74493 189.71 7.66686C189.871 8.66667 189.962 9.67638 189.984 10.6888V12.1194C189.984 12.7302 189.984 13.3088 189.984 13.8875V47.5465C189.984 48.1412 189.984 48.7038 189.984 49.2825V50.7774C189.963 51.7738 189.872 52.7675 189.71 53.7511C189.558 54.6844 189.265 55.5894 188.842 56.4354C188.428 57.2607 187.886 58.0148 187.235 58.6697C186.58 59.327 185.819 59.8702 184.985 60.2771C184.149 60.7507 183.243 61.0871 182.3 61.2737C181.307 61.441 180.302 61.5271 179.294 61.5309H12.623V61.4666Z" fill="black"/>
<path d="M38.872 31.2162C38.8861 29.8737 39.2418 28.5569 39.9054 27.3899C40.5691 26.2228 41.519 25.244 42.6655 24.5455C41.9371 23.5072 40.9768 22.6528 39.8607 22.0501C38.7447 21.4475 37.5036 21.1131 36.2359 21.0735C33.5515 20.7842 30.9315 22.6809 29.5491 22.6809C28.1667 22.6809 26.0289 21.0735 23.7464 21.0735C22.2716 21.1215 20.8344 21.551 19.5751 22.32C18.3159 23.0891 17.2775 24.1716 16.5613 25.4617C13.5233 30.9108 15.7737 38.771 18.7474 43.1753C20.2422 45.3131 21.9622 47.6921 24.2608 47.5956C26.5593 47.4992 27.3148 46.1811 30.0153 46.1811C32.7157 46.1811 33.4551 47.5956 35.7858 47.5474C38.1166 47.4992 39.6918 45.4095 41.1224 43.2556C42.1905 41.7373 43.0148 40.0615 43.5656 38.2888C42.1738 37.7031 40.9858 36.7195 40.1508 35.4612C39.3158 34.203 38.871 32.7263 38.872 31.2162Z" fill="white"/>
<path d="M34.4195 18.2119C35.7185 16.6437 36.3581 14.6325 36.2037 12.6021C34.2113 12.8171 32.3711 13.7687 31.044 15.2703C29.7433 16.7577 29.0845 18.6995 29.2115 20.6712C30.209 20.681 31.1957 20.4649 32.0976 20.039C32.9996 19.613 33.7934 18.9884 34.4195 18.2119Z" fill="white"/>
<path d="M67.0497 42.211H59.4467L57.6142 47.6119H54.3994L61.6006 27.6479H64.96L72.1612 47.6119H68.9464L67.0497 42.211ZM60.2343 39.7195H66.262L63.3526 30.9592H63.2723L60.2343 39.7195Z" fill="white"/>
<path d="M87.7209 40.3778C87.7209 44.8946 85.2937 47.804 81.6449 47.804C80.7139 47.8434 79.7907 47.6201 78.9806 47.1596C78.1705 46.6991 77.5063 46.0201 77.0638 45.2V52.4012H74.0098V33.1124H76.9031V35.5556C77.3729 34.7474 78.0529 34.0814 78.8709 33.6286C79.6888 33.1758 80.6141 32.9529 81.5485 32.9838C85.2937 32.9034 87.7209 35.8128 87.7209 40.3778ZM84.6508 40.3778C84.6508 37.4363 83.0434 35.5556 80.8091 35.5556C78.5748 35.5556 76.9835 37.5327 76.9835 40.3778C76.9835 43.2229 78.5909 45.2804 80.8091 45.2804C83.0273 45.2804 84.6508 43.3033 84.6508 40.3778Z" fill="white"/>
<path d="M103.731 40.3783C103.731 44.8951 101.32 47.8045 97.6708 47.8045C96.7395 47.8458 95.8155 47.6233 95.005 47.1626C94.1946 46.7019 93.5307 46.0218 93.0897 45.2005V52.4017H90.0356V33.1128H92.929V35.5561C93.3975 34.7503 94.075 34.086 94.8898 33.6333C95.7046 33.1806 96.6266 32.9564 97.5583 32.9843C101.304 32.9039 103.731 35.8133 103.731 40.3783ZM100.661 40.3783C100.661 37.4368 99.1496 35.5561 96.8189 35.5561C94.4881 35.5561 93.0093 37.5332 93.0093 40.3783C93.0093 43.2234 94.5364 45.2005 96.8189 45.2005C99.1014 45.2005 100.661 43.3038 100.661 40.3783Z" fill="white"/>
<path d="M114.323 41.9853C114.548 43.9624 116.461 45.2001 119.146 45.2001C121.83 45.2001 123.469 43.8981 123.469 42.1139C123.469 40.3297 122.376 39.6385 119.789 38.9956L117.201 38.3687C113.536 37.4846 111.848 35.7808 111.848 32.9999C111.848 29.544 114.838 27.1812 119.097 27.1812C123.357 27.1812 126.218 29.544 126.315 32.9999H123.244C123.068 31.0068 121.412 29.7851 119.017 29.7851C116.622 29.7851 114.966 30.9907 114.966 32.7749C114.966 34.1733 116.011 35.0092 118.583 35.6522L120.785 36.1826C124.884 37.147 126.588 38.8027 126.588 41.7121C126.588 45.4573 123.598 47.788 118.872 47.788C114.452 47.788 111.462 45.5055 111.269 41.905L114.323 41.9853Z" fill="white"/>
<path d="M133.034 29.6079V33.0478H135.798V35.4106H133.034V43.4476C133.034 44.6853 133.58 45.264 134.802 45.264C135.128 45.284 135.456 45.284 135.782 45.264V47.6108C135.252 47.7107 134.714 47.7591 134.175 47.7555C131.217 47.7555 130.076 46.6464 130.076 43.8173V35.4106H127.906V33.0478H130.028V29.6079H133.034Z" fill="white"/>
<path d="M137.39 40.3778C137.39 35.7967 140.09 32.9194 144.301 32.9194C148.513 32.9194 151.197 35.7967 151.197 40.3778C151.197 44.9589 148.545 47.7879 144.301 47.7879C140.058 47.7879 137.39 44.9267 137.39 40.3778ZM148.159 40.3778C148.159 37.2433 146.713 35.3788 144.301 35.3788C141.89 35.3788 140.508 37.163 140.508 40.3778C140.508 43.5926 141.939 45.3768 144.366 45.3768C146.793 45.3768 148.159 43.4801 148.159 40.3778Z" fill="white"/>
<path d="M153.673 33.0479H156.582V35.5554C156.777 34.783 157.231 34.101 157.869 33.624C158.507 33.1469 159.29 32.9038 160.086 32.9353C160.432 32.9298 160.778 32.9676 161.115 33.0479V35.8447C160.696 35.6706 160.25 35.5726 159.797 35.5554C159.348 35.5225 158.897 35.5903 158.478 35.7539C158.059 35.9174 157.681 36.1726 157.373 36.5007C157.065 36.8288 156.834 37.2217 156.697 37.6505C156.56 38.0793 156.521 38.5332 156.582 38.9792V47.6109H153.673V33.0479Z" fill="white"/>
<path d="M174.874 43.3363C174.472 45.9724 171.901 47.7888 168.621 47.7888C164.378 47.7888 161.758 44.9437 161.758 40.3947C161.758 35.8458 164.394 32.8721 168.493 32.8721C172.592 32.8721 175.051 35.6368 175.051 40.0572V41.0698H164.764V41.2627C164.718 41.7982 164.786 42.3374 164.964 42.8445C165.143 43.3516 165.426 43.815 165.797 44.2041C166.168 44.5932 166.617 44.899 167.115 45.1013C167.613 45.3037 168.149 45.3978 168.686 45.3777C169.391 45.4435 170.098 45.2805 170.703 44.9128C171.308 44.5451 171.779 43.9923 172.045 43.3363H174.874ZM164.78 38.9802H172.061C172.088 38.4993 172.015 38.0181 171.847 37.5669C171.678 37.1157 171.418 36.7042 171.083 36.3584C170.748 36.0126 170.345 35.74 169.899 35.5577C169.453 35.3754 168.974 35.2874 168.493 35.2992C168.007 35.2971 167.526 35.3907 167.077 35.5745C166.627 35.7583 166.219 36.0289 165.874 36.3707C165.529 36.7125 165.255 37.1189 165.067 37.5666C164.88 38.0144 164.782 38.4947 164.78 38.9802Z" fill="white"/>
<path d="M59.8646 12.6179C60.4952 12.5735 61.1279 12.6705 61.7162 12.9019C62.3045 13.1334 62.8337 13.4933 63.2651 13.9555C63.6965 14.4177 64.0191 14.9704 64.2095 15.5733C64.3998 16.1762 64.4531 16.814 64.3653 17.4401C64.3653 20.4942 62.7579 22.2623 59.8646 22.2623H56.3926V12.6179H59.8646ZM57.8875 20.8478H59.6878C60.139 20.8842 60.5926 20.8183 61.0147 20.6549C61.4369 20.4915 61.8166 20.2348 62.1257 19.9041C62.4348 19.5734 62.6652 19.1771 62.7997 18.7449C62.9342 18.3127 62.9694 17.8557 62.9026 17.408C62.9663 16.9608 62.9289 16.505 62.7932 16.0742C62.6576 15.6434 62.4271 15.2484 62.1187 14.9184C61.8102 14.5884 61.4318 14.3318 61.0111 14.1673C60.5904 14.0028 60.1382 13.9348 59.6878 13.9681H57.8875V20.8478Z" fill="white"/>
<path d="M66.0532 18.582C66.0211 18.1138 66.0855 17.6439 66.2426 17.2016C66.3998 16.7593 66.6461 16.3541 66.9664 16.011C67.2868 15.6679 67.6742 15.3944 68.1047 15.2074C68.5352 15.0203 68.9996 14.9238 69.4689 14.9238C69.9383 14.9238 70.4027 15.0203 70.8331 15.2074C71.2636 15.3944 71.6511 15.6679 71.9714 16.011C72.2917 16.3541 72.5381 16.7593 72.6952 17.2016C72.8523 17.6439 72.9168 18.1138 72.8847 18.582C72.9168 19.0503 72.8523 19.5202 72.6952 19.9625C72.5381 20.4048 72.2917 20.81 71.9714 21.1531C71.6511 21.4962 71.2636 21.7697 70.8331 21.9567C70.4027 22.1438 69.9383 22.2403 69.4689 22.2403C68.9996 22.2403 68.5352 22.1438 68.1047 21.9567C67.6742 21.7697 67.2868 21.4962 66.9664 21.1531C66.6461 20.81 66.3998 20.4048 66.2426 19.9625C66.0855 19.5202 66.0211 19.0503 66.0532 18.582ZM71.4058 18.582C71.4058 16.9746 70.7147 16.1066 69.477 16.1066C68.2393 16.1066 67.532 17.0229 67.532 18.582C67.532 20.1412 68.175 21.0896 69.477 21.0896C70.779 21.0896 71.3898 20.1573 71.3898 18.582H71.4058Z" fill="white"/>
<path d="M81.9503 22.2142H80.4715L78.9766 16.8777H78.8641L77.3692 22.2142H75.9065L73.9133 14.9648H75.36L76.662 20.4943H76.7584L78.2533 14.9648H79.6196L81.1145 20.4943H81.227L82.5129 14.9648H83.9435L81.9503 22.2142Z" fill="white"/>
<path d="M85.6151 14.9642H86.9975V16.1215H87.11C87.2877 15.7075 87.5917 15.3603 87.9785 15.1294C88.3653 14.8985 88.8152 14.7956 89.2639 14.8356C89.6159 14.8075 89.9696 14.8593 90.2988 14.987C90.628 15.1147 90.9241 15.315 91.1651 15.573C91.4061 15.831 91.5858 16.1401 91.6908 16.4771C91.7958 16.8142 91.8234 17.1707 91.7715 17.5199V22.2135H90.3409V17.8736C90.3409 16.7002 89.8265 16.1215 88.7335 16.1215C88.4915 16.0995 88.2478 16.1327 88.0205 16.2185C87.7932 16.3043 87.5883 16.4405 87.4212 16.6168C87.2541 16.7932 87.1292 17.0051 87.0558 17.2367C86.9824 17.4683 86.9625 17.7135 86.9975 17.9539V22.2135H85.5669L85.6151 14.9642Z" fill="white"/>
<path d="M94.0381 12.1523H95.5008V22.2147H94.0702L94.0381 12.1523Z" fill="white"/>
<path d="M97.4619 18.582C97.4298 18.1138 97.4942 17.6439 97.6513 17.2016C97.8084 16.7593 98.0548 16.3541 98.3751 16.011C98.6955 15.6679 99.0829 15.3944 99.5134 15.2074C99.9439 15.0203 100.408 14.9238 100.878 14.9238C101.347 14.9238 101.811 15.0203 102.242 15.2074C102.672 15.3944 103.06 15.6679 103.38 16.011C103.7 16.3541 103.947 16.7593 104.104 17.2016C104.261 17.6439 104.325 18.1138 104.293 18.582C104.325 19.0503 104.261 19.5202 104.104 19.9625C103.947 20.4048 103.7 20.81 103.38 21.1531C103.06 21.4962 102.672 21.7697 102.242 21.9567C101.811 22.1438 101.347 22.2403 100.878 22.2403C100.408 22.2403 99.9439 22.1438 99.5134 21.9567C99.0829 21.7697 98.6955 21.4962 98.3751 21.1531C98.0548 20.81 97.8084 20.4048 97.6513 19.9625C97.4942 19.5202 97.4298 19.0503 97.4619 18.582ZM102.815 18.582C102.815 16.9746 102.107 16.1066 100.87 16.1066C99.6319 16.1066 98.9407 17.0229 98.9407 18.582C98.9407 20.1412 99.6319 21.0896 100.87 21.0896C102.107 21.0896 102.815 20.1573 102.815 18.582Z" fill="white"/>
<path d="M105.788 20.1574C105.788 18.8554 106.753 18.116 108.489 18.0035L110.45 17.8749V17.248C110.45 16.4925 109.935 16.0585 108.955 16.0585C107.974 16.0585 107.604 16.3478 107.46 16.8622H106.061C106.222 15.6084 107.379 14.8208 109.019 14.8208C110.659 14.8208 111.864 15.7209 111.864 17.248V22.2148H110.482V21.1861H110.369C110.144 21.5542 109.823 21.8546 109.441 22.0555C109.059 22.2564 108.63 22.3503 108.199 22.3274C107.895 22.3588 107.588 22.3262 107.297 22.2315C107.007 22.1369 106.739 21.9823 106.512 21.7778C106.285 21.5733 106.103 21.3234 105.978 21.0443C105.853 20.7652 105.789 20.4631 105.788 20.1574ZM110.45 19.4823V18.8715L108.681 18.984C107.685 18.984 107.219 19.4019 107.219 20.0288C107.219 20.6557 107.797 21.0575 108.569 21.0575C108.797 21.0818 109.027 21.06 109.246 20.9933C109.465 20.9267 109.668 20.8165 109.844 20.6695C110.019 20.5225 110.164 20.3415 110.268 20.1376C110.372 19.9336 110.434 19.7107 110.45 19.4823Z" fill="white"/>
<path d="M113.745 18.582C113.745 16.2994 114.918 14.8528 116.75 14.8528C117.202 14.8334 117.651 14.9423 118.043 15.1671C118.436 15.3918 118.757 15.7231 118.969 16.1226H119.065V12.1523H120.496V22.2147H119.129V21.0895H119.017C118.789 21.485 118.458 21.8107 118.058 22.0317C117.659 22.2526 117.207 22.3603 116.75 22.3433C114.902 22.3272 113.745 20.8805 113.745 18.582ZM115.223 18.582C115.223 20.1894 115.947 21.0413 117.152 21.0413C118.358 21.0413 119.097 20.109 119.097 18.598C119.097 17.0871 118.342 16.1387 117.152 16.1387C115.963 16.1387 115.223 17.071 115.223 18.582Z" fill="white"/>
<path d="M126.411 18.582C126.379 18.1138 126.443 17.6439 126.601 17.2016C126.758 16.7593 127.004 16.3541 127.324 16.011C127.645 15.6679 128.032 15.3944 128.463 15.2074C128.893 15.0203 129.357 14.9238 129.827 14.9238C130.296 14.9238 130.761 15.0203 131.191 15.2074C131.622 15.3944 132.009 15.6679 132.329 16.011C132.65 16.3541 132.896 16.7593 133.053 17.2016C133.21 17.6439 133.275 18.1138 133.243 18.582C133.275 19.0503 133.21 19.5202 133.053 19.9625C132.896 20.4048 132.65 20.81 132.329 21.1531C132.009 21.4962 131.622 21.7697 131.191 21.9567C130.761 22.1438 130.296 22.2403 129.827 22.2403C129.357 22.2403 128.893 22.1438 128.463 21.9567C128.032 21.7697 127.645 21.4962 127.324 21.1531C127.004 20.81 126.758 20.4048 126.601 19.9625C126.443 19.5202 126.379 19.0503 126.411 18.582ZM131.764 18.582C131.764 16.9746 131.057 16.1066 129.835 16.1066C128.613 16.1066 127.89 17.0229 127.89 18.582C127.89 20.1412 128.581 21.0896 129.835 21.0896C131.089 21.0896 131.764 20.1573 131.764 18.582Z" fill="white"/>
<path d="M135.155 14.9652H136.522V16.1225H136.634C136.819 15.7102 137.126 15.3653 137.515 15.135C137.904 14.9047 138.354 14.8005 138.804 14.8366C139.155 14.8111 139.507 14.8648 139.834 14.9936C140.161 15.1224 140.455 15.323 140.694 15.5807C140.933 15.8384 141.112 16.1466 141.216 16.4824C141.32 16.8182 141.347 17.1731 141.296 17.5209V22.2146H139.881V17.8746C139.881 16.7012 139.367 16.1225 138.274 16.1225C138.033 16.1031 137.791 16.1382 137.566 16.2251C137.341 16.3121 137.138 16.4486 136.973 16.6247C136.807 16.8007 136.684 17.0117 136.611 17.242C136.539 17.4723 136.519 17.716 136.554 17.9549V22.2146H135.123L135.155 14.9652Z" fill="white"/>
<path d="M149.381 13.1646V15.0131H150.988V16.2668H149.381V19.996C149.381 20.7515 149.686 21.089 150.394 21.089H150.94V22.2785C150.683 22.2964 150.425 22.2964 150.169 22.2785C148.561 22.2785 147.95 21.732 147.95 20.3336V16.2668H146.793V15.0774H147.95V13.1646H149.381Z" fill="white"/>
<path d="M152.885 12.1523H154.316V16.1387H154.428C154.611 15.7276 154.916 15.3824 155.301 15.1497C155.686 14.9169 156.133 14.8077 156.582 14.8367C156.933 14.8168 157.284 14.8748 157.609 15.0065C157.935 15.1383 158.227 15.3405 158.465 15.5987C158.704 15.8568 158.882 16.1646 158.987 16.4997C159.092 16.8349 159.122 17.1892 159.074 17.5371V22.2147H157.643V17.8747C157.643 16.7174 157.112 16.1387 156.036 16.1387C155.79 16.1193 155.543 16.1535 155.312 16.2387C155.081 16.324 154.871 16.4583 154.697 16.6325C154.523 16.8067 154.388 17.0165 154.303 17.2476C154.218 17.4787 154.184 17.7256 154.203 17.9711V22.2147H152.885V12.1523Z" fill="white"/>
<path d="M167.448 20.253C167.253 20.93 166.821 21.514 166.231 21.8979C165.64 22.2818 164.931 22.4397 164.233 22.3426C163.753 22.3681 163.274 22.2858 162.83 22.1016C162.386 21.9174 161.99 21.6361 161.669 21.2784C161.348 20.9206 161.112 20.4955 160.977 20.0344C160.842 19.5732 160.812 19.0876 160.89 18.6135C160.828 18.1394 160.868 17.6575 161.008 17.2004C161.148 16.7432 161.384 16.3214 161.701 15.9634C162.018 15.6054 162.408 15.3195 162.845 15.125C163.282 14.9305 163.755 14.832 164.233 14.8361C166.242 14.8361 167.448 16.2023 167.448 18.4849V18.9832H162.353V19.0635C162.334 19.3315 162.373 19.6004 162.466 19.8524C162.559 20.1044 162.704 20.3337 162.893 20.5252C163.081 20.7167 163.308 20.866 163.559 20.9631C163.809 21.0603 164.077 21.1032 164.346 21.0889C164.69 21.1277 165.038 21.0646 165.346 20.9075C165.655 20.7503 165.911 20.506 166.082 20.2048L167.448 20.253ZM162.433 17.874H166.082C166.1 17.6306 166.067 17.3862 165.985 17.1563C165.903 16.9264 165.773 16.7162 165.605 16.5392C165.437 16.3621 165.234 16.2221 165.009 16.1281C164.784 16.0341 164.542 15.9882 164.298 15.9934C164.051 15.9912 163.806 16.0385 163.578 16.1324C163.349 16.2264 163.142 16.3651 162.968 16.5404C162.795 16.7156 162.658 16.924 162.566 17.153C162.474 17.3821 162.429 17.6272 162.433 17.874Z" fill="white"/>
</g>
<defs>
<clipPath id="clip0_57_3499">
<rect width="189.545" height="61.4831" fill="white" transform="translate(0.455078)"/>
</clipPath>
</defs>
</svg>
