<svg width="118" height="72" viewBox="0 0 118 72" fill="none" xmlns="http://www.w3.org/2000/svg">
<g clip-path="url(#clip0_42_3686)">
<path d="M117.339 26.7169L104.717 20.6606L98.6608 33.2829L111.283 39.3392L117.339 26.7169Z" fill="#BEE79C"/>
</g>
<g clip-path="url(#clip1_42_3686)">
<path d="M0 60.6745L3.30698 71.1848C16.4574 67.0498 27.4258 61.8257 36.0356 55.6544C30.5478 54.4912 24.3443 50.1594 24.3443 50.1594C16.5492 54.7882 7.84036 58.2074 0 60.6745Z" fill="#FFE05A"/>
<path d="M75.0059 53.2611L71.069 42.968C62.8194 46.1234 54.0843 47.0074 46.6126 46.3239C39.6109 46.1509 34.1196 43.2006 34.1196 43.2006C33.1576 42.7507 32.2343 42.2224 31.359 41.6211C26.7934 38.4429 24.6054 33.8463 24.6782 27.5688C24.7259 23.0473 27.6428 17.3257 31.6131 13.9686C33.263 12.5716 35.7337 11.0231 38.5766 11.0231C38.9761 11.0233 39.3749 11.0544 39.7696 11.1162C41.4398 11.3763 43.0145 12.1899 44.2743 13.3459C44.2743 13.3459 37.5136 3.69815 19.4696 11.0184C15.8906 15.9705 13.7158 21.9104 13.6561 27.4554C13.5535 37.0602 17.2506 44.8923 24.3597 50.1641C24.3597 50.1641 30.5632 54.4959 36.051 55.659C41.1499 57.0596 46.2344 57.4795 50.3181 57.5118C58.7621 57.5726 67.768 56.0277 75.0059 53.2611Z" fill="#FFBA57"/>
<path d="M44.2625 13.3411C45.4204 14.3834 46.2756 15.7187 46.738 17.2064C47.393 19.398 47.2605 22.0977 46.3467 25.2234C44.2768 32.3062 39.821 38.2449 34.1113 43.2006C34.1113 43.2006 39.5991 46.1509 46.6044 46.3239C51.5589 40.8361 55.0269 34.8103 56.925 28.3096C58.4448 23.1094 58.5713 18.31 57.2996 14.0474C55.1725 6.92163 48.8066 1.36347 41.4578 0.215805C35.6431 -0.692064 29.6102 1.20002 24.4779 5.5461C22.591 7.1581 20.9054 8.99186 19.4578 11.0076C37.5018 3.69338 44.2625 13.3399 44.2625 13.3411Z" fill="#FFE05A"/>
</g>
<defs>
<clipPath id="clip0_42_3686">
<rect width="14" height="14" fill="white" transform="translate(104.717 20.6606) rotate(25.632)"/>
</clipPath>
<clipPath id="clip1_42_3686">
<rect width="75" height="71.1848" fill="white"/>
</clipPath>
</defs>
</svg>
