<svg width="176" height="322" viewBox="0 0 176 322" fill="none" xmlns="http://www.w3.org/2000/svg">
<g clip-path="url(#clip0_36_1664)">
<path d="M49.5658 188.38C41.5542 187.072 34.1358 189.335 28.7743 194.852C22.1473 201.665 20.1654 212.155 23.5861 222.23C25.8002 228.752 28.9745 234.654 32.0427 240.365C36.8012 249.22 41.2977 257.585 41.5736 267.105C41.7524 273.268 39.6521 280.658 34.7018 285.079L34.7126 285.092C34.7126 285.092 47.2222 278.158 52.7874 253.026C50.6232 246.188 47.2971 239.989 44.0361 233.919C41.1016 228.458 38.3284 223.299 36.4762 217.85C35.7583 215.788 35.4564 213.605 35.588 211.426C35.588 211.426 35.5671 194.647 49.5658 188.38Z" fill="#A56AD6"/>
<path d="M88.7499 133.219C98.4159 137.435 106.771 152.728 111.715 166.925C112.029 167.824 112.326 168.761 112.608 169.73C112.608 169.73 119.741 168.946 124.819 163.159C124.739 162.916 124.659 162.679 124.578 162.448C122.15 155.478 117.96 145.302 111.769 136.441C104.018 125.33 95.2107 119.312 85.5968 118.554C77.0269 117.878 68.5907 123.09 64.2087 130.976C74.1503 123.176 88.7499 133.219 88.7499 133.219Z" fill="#A56AD6"/>
<path d="M34.7135 285.088L34.7028 285.075C33.7695 285.922 32.7338 286.649 31.62 287.239C28.5515 288.843 24.2903 288.933 20.7655 287.47C19.1684 286.807 16.3467 285.235 15.3834 282.148L2.38776 286.205C4.32566 292.411 8.99771 297.326 15.548 300.044C22.863 303.08 31.2285 302.804 37.9256 299.305C48.8196 293.613 55.5948 280.817 55.1855 266.705C55.0432 261.81 54.1421 257.292 52.7897 253.022C47.2231 278.154 34.7135 285.088 34.7135 285.088Z" fill="#E085E4"/>
<path d="M96.7333 212.893C90.3642 212.151 83.577 207.682 74.7215 201.356C68.0244 196.565 61.0952 191.622 53.6825 189.34C52.3339 188.926 50.9582 188.606 49.5653 188.383C35.5666 194.65 35.5875 211.415 35.5875 211.415C35.7825 208.632 36.7827 206.14 38.5373 204.335C41.1536 201.643 45.1071 200.935 49.6716 202.342C54.9753 203.976 60.7214 208.089 66.8058 212.427C79.0079 221.143 94.1941 231.991 111.403 223.592C117.054 220.835 121.403 216.283 124.325 210.157C124.982 208.765 125.554 207.334 126.037 205.873C113.056 217.549 96.7333 212.893 96.7333 212.893Z" fill="#E085E4"/>
<path d="M114.953 183.176C115.833 195.171 113.501 207.423 105.429 211.363C102.51 212.787 99.664 213.235 96.7291 212.892C96.7291 212.892 113.058 217.549 126.033 205.878C127.218 202.356 128.022 198.433 128.415 194.119C128.915 188.608 128.693 183.067 128.06 177.968C122.346 182.546 114.953 183.176 114.953 183.176Z" fill="#A56AD6"/>
<path d="M113.899 76.0271C116.09 82.7282 119.075 89.6307 122.235 96.9368C132.741 121.229 139.438 139.757 131.665 154.442L131.687 154.43C131.687 154.43 142.959 147.841 146.338 122.85C143.698 112.284 139.164 101.782 134.731 91.5328C131.698 84.5291 128.836 77.901 126.845 71.7977C123.837 62.5981 114.686 34.6017 134.135 26.5833L128.94 13.9969C114.74 19.8446 100.604 35.3584 113.899 76.0271Z" fill="#A56AD6"/>
<path d="M131.681 154.424L131.659 154.436C130.036 157.503 127.796 160.407 124.81 163.157C119.732 168.945 112.599 169.728 112.599 169.728C101.428 171.65 87.3403 166.035 80.3447 157.534C75.9576 152.195 73.9251 145.959 74.9093 140.833C75.0861 139.934 75.3759 139.06 75.7719 138.233C77.5173 134.574 81.1796 131.86 84.5166 132.124C85.9775 132.25 87.407 132.619 88.7457 133.218C88.7457 133.218 74.1462 123.175 64.2002 130.974C62.9339 133.249 62.0367 135.71 61.5418 138.266C59.7755 147.46 62.798 157.637 69.833 166.191C76.146 173.857 86.3322 179.936 97.093 182.459C103.363 183.928 109.412 184.153 114.955 183.181C114.955 183.181 122.337 182.549 128.063 177.974C128.432 177.724 128.795 177.467 129.153 177.202C143.497 166.575 149.971 152.265 148.395 134.666C148.016 130.678 147.325 126.725 146.33 122.843C140.392 145.832 131.681 154.424 131.681 154.424Z" fill="#E085E4"/>
</g>
<defs>
<clipPath id="clip0_36_1664">
<rect width="112.567" height="304.151" fill="white" transform="translate(65.2661) rotate(12.3911)"/>
</clipPath>
</defs>
</svg>
