<svg width="215" height="171" viewBox="0 0 215 171" fill="none" xmlns="http://www.w3.org/2000/svg">
<g clip-path="url(#clip0_36_1658)">
<path d="M53.8766 105.783C52.0168 104.986 51.5351 104.002 51.3182 103.241C50.591 100.629 52.0326 96.0572 54.8321 92.1252C59.466 85.6214 67.1774 78.9565 76.018 77.7576C76.8588 72.3096 75.333 67.0923 75.333 67.0923C62.8128 68.5126 52.2752 77.3182 46.1388 85.9337C45.2238 87.229 44.3974 88.5847 43.6652 89.9916C41.6582 100.648 53.8766 105.783 53.8766 105.783Z" fill="#FF659C"/>
<path d="M76.2734 45.5483C69.9258 38.2275 61.488 33.2132 52.5072 31.4402C42.7283 29.504 32.9883 31.6289 25.0811 37.4208L31.388 46.0315C40.8627 39.0917 56.5531 39.0981 68.2096 52.5413C71.8194 56.7045 74.1894 61.7397 75.3354 67.0867C75.3354 67.0867 76.8607 72.305 76.0204 77.7521C75.4004 85.5268 72.3624 93.1926 66.95 99.171C65.6708 100.588 64.2669 101.886 62.7551 103.052C61.1117 104.315 56.9557 107.107 53.8781 105.779C53.8781 105.779 41.6596 100.644 43.669 89.9828C41.5558 94.0392 39.374 100.142 41.0439 106.107C42.2195 110.308 45.1022 113.54 49.39 115.465C49.4786 115.505 49.5682 115.545 49.6578 115.585C55.5674 118.129 62.5278 116.684 69.2566 111.517C71.2771 109.96 73.1537 108.225 74.8635 106.332C81.8381 98.6286 85.7994 88.9874 86.7082 79.1641C87.5861 73.4642 86.3953 67.8249 86.3953 67.8249C85.1849 59.7097 81.8136 51.9368 76.2734 45.5483Z" fill="#FF91CE"/>
<path d="M169.167 72.1883C170.003 74.3367 170.17 76.8265 169.601 79.5094C167.797 88.0152 159.687 95.6132 149.835 98.0588C149.835 98.0588 153.25 103.127 159.487 105.899C168.825 101.562 177.586 93.2865 180.038 81.7232C182.065 72.1675 178.489 63.117 170.703 58.1028C165.359 54.6595 158.979 53.7268 152.927 55.2063C162.292 58.2939 167.861 67.4825 169.167 72.1883Z" fill="#FF659C"/>
<path d="M112.53 87.1437C111.916 86.4957 111.301 85.843 110.687 85.1857C104.169 78.2315 96.9014 70.4739 86.3956 67.8239C86.3956 67.8239 87.5864 73.4633 86.7085 79.1632C92.8008 81.709 97.7474 86.985 102.901 92.4831C103.529 93.1524 104.154 93.8208 104.783 94.4829C115.129 105.403 131.188 111.07 146.238 109.492C141.006 105.535 137.471 98.9335 137.471 98.9335C128.092 98.0733 118.919 93.8877 112.53 87.1437Z" fill="#FF659C"/>
<path d="M195.505 120.744L193.278 110.305C182.897 112.52 169.838 111.602 159.487 105.903C153.247 103.13 149.836 98.0629 149.836 98.0629C149.054 97.1325 148.328 96.1574 147.66 95.1425C142.295 86.9863 140.871 74.999 150.421 67.9563C154.397 65.0234 159.314 64.4177 163.387 66.2458C163.921 66.4852 164.436 66.7646 164.928 67.0818C166.933 68.3731 168.361 70.1245 169.167 72.1924C167.861 67.4862 162.293 58.298 152.93 55.2114C149.736 55.9963 146.729 57.4083 144.085 59.3654C131.906 68.3461 129.3 84.6881 137.468 98.9386C137.468 98.9386 141.002 105.54 146.235 109.497C157.214 119.057 174.688 125.183 195.505 120.744Z" fill="#FF91CE"/>
</g>
<defs>
<clipPath id="clip0_36_1658">
<rect width="189.6" height="102.268" fill="white" transform="translate(41.8772) rotate(24.1726)"/>
</clipPath>
</defs>
</svg>
