<svg width="520" height="99" viewBox="0 0 520 99" fill="none" xmlns="http://www.w3.org/2000/svg">
<path d="M431 30H520L502.092 64.5L520 99H431V30Z" fill="#E9521C"/>
<path d="M431 78V99L479 78H431Z" fill="#B43A0F"/>
<path d="M89 30H0L17.9084 64.5L0 99H89V30Z" fill="#E9521C"/>
<path d="M89 78V99L41 78H89Z" fill="#B43A0F"/>
<rect width="438" height="78" transform="translate(41)" fill="#FC6D3A"/>
<path d="M134.84 38.016H115.928V27.552C121.16 26.736 126.152 25.776 130.424 24.528L126.104 19.728C118.28 22.08 105.416 23.856 93.944 24.768C94.568 26.064 95.336 28.368 95.48 29.856C100.088 29.52 104.984 29.04 109.784 28.416V38.016H91.352V43.632H109.784V64.176H115.928V43.632H134.84V38.016ZM157.296 44.496L151.392 46.416V29.76H156.72V24.48H140.304V29.76H145.632V48.192C143.136 48.96 140.832 49.632 139.008 50.16L141.36 55.632C146.16 53.904 152.4 51.648 158.208 49.44L157.296 44.496ZM164.592 47.472H177.168V50.544H164.592V47.472ZM164.592 40.464H177.168V43.536H164.592V40.464ZM164.592 33.6H177.168V36.624H164.592V33.6ZM182.736 54.72V29.376H172.704C173.088 28.32 173.52 27.216 173.904 26.064H184.512V21.264H157.344V26.064H167.472C167.28 27.12 167.088 28.272 166.848 29.376H159.312V54.72H164.16C161.712 56.688 156.96 59.04 153.072 60.24C154.224 61.296 155.76 63.024 156.528 64.128C160.752 62.784 165.792 60.288 168.96 57.84L164.544 54.72H182.736ZM171.552 57.888C174.672 59.712 178.848 62.448 180.816 64.224L185.328 60.864C183.12 59.04 178.8 56.496 175.776 54.864L171.552 57.888ZM201.496 34.368C201.352 38.112 200.776 42.48 199.096 46.8C197.896 45.744 196.648 44.688 195.448 43.68C196.072 40.944 196.648 37.824 197.224 34.656L201.496 34.368ZM209.368 33.84V28.704L206.872 28.848V26.112H201.544V29.136L198.088 29.328C198.616 26.016 199 22.752 199.288 19.68L193.624 19.44C193.432 22.656 193.048 26.112 192.568 29.568C191.128 29.616 189.736 29.664 188.488 29.712L189.016 35.136L191.704 34.944C191.032 38.88 190.216 42.528 189.448 45.408C191.608 47.328 194.152 49.632 196.6 51.888C194.728 54.912 192.088 57.744 188.488 60.288C189.784 61.2 191.656 63.072 192.52 64.272C196.072 61.68 198.664 58.848 200.68 55.824C202.648 57.792 204.376 59.664 205.576 61.2L209.32 56.448C207.928 54.768 205.816 52.8 203.512 50.64C206.008 44.928 206.68 38.976 206.824 34.032L209.368 33.84ZM233.416 39.072H223.816V35.472C227.224 32.304 230.392 28.272 232.648 24.768L228.808 21.984L227.464 22.272H209.656V27.456H223.72C222.04 29.952 219.928 32.64 217.864 34.464V39.072H207.784V44.496H217.864V57.888C217.864 58.608 217.624 58.8 216.808 58.8C216.04 58.8 213.256 58.8 210.856 58.752C211.672 60.24 212.488 62.592 212.776 64.176C216.52 64.224 219.256 64.08 221.176 63.264C223.192 62.352 223.816 60.912 223.816 57.984V44.496H233.416V39.072ZM266.336 51.12V46.8H275.456C273.584 48.48 270.656 50.544 268.352 51.936L266.336 51.12ZM255.2 53.184L257.744 50.352C256.4 49.344 254.096 47.952 252.08 46.8H260.528V51.12L255.2 53.184ZM266.336 40.32H272.672V42.96H266.336V40.32ZM266.336 33.936H272.672V36.384H266.336V33.936ZM278.048 40.752H282.272V35.904H278.048V30.096H266.336V28.08H281.792V23.088H266.144C265.472 21.696 264.608 20.16 263.792 18.864L258.08 20.256C258.56 21.072 259.088 22.08 259.52 23.088H241.376V36.96C241.376 44.064 241.088 54 237.152 60.912C238.4 61.44 240.8 63.024 241.808 63.984C246.08 56.544 246.8 44.784 246.8 36.96V28.08H260.528V30.096H249.632V33.936H260.528V36.384H247.712V40.32H260.528V42.96H249.104V46.8H250.16L247.856 49.2C249.872 50.496 252.656 52.32 254.24 53.52C250.928 54.768 247.952 55.872 245.744 56.64L247.856 61.296C251.504 59.664 256.112 57.552 260.528 55.536V58.608C260.528 59.376 260.24 59.664 259.376 59.664C258.56 59.712 255.632 59.712 253.232 59.616C253.952 60.912 254.72 62.88 255.008 64.272C258.992 64.272 261.776 64.224 263.696 63.504C265.616 62.736 266.336 61.536 266.336 58.704V55.632C271.04 57.696 276.32 60.288 279.248 62.016L281.84 58.032C279.776 56.928 276.512 55.392 273.248 53.952C275.408 52.8 277.856 51.312 280.064 49.824L276.272 46.8H278.048V40.752ZM330.264 52.992C327.624 50.448 322.68 46.416 318.6 43.104H330.072V37.92H318.312C318.36 37.488 318.36 37.056 318.36 36.624V32.688H328.872V27.504H323.208C324.408 25.488 325.656 23.232 326.856 20.976L321.096 19.344C320.328 21.744 318.936 25.008 317.592 27.504H311.16L313.8 26.4C312.84 24.576 310.872 21.504 309.48 19.296L304.632 21.12C305.784 23.088 307.224 25.632 308.184 27.504H302.664V32.688H312.696V36.576C312.696 37.008 312.696 37.44 312.648 37.92H301.368V43.104H311.64C310.344 46.512 307.32 50.16 300.696 52.992C301.992 54 303.816 55.824 304.584 56.976C310.296 54.192 313.704 50.736 315.672 47.28C319.656 50.64 324.024 54.528 326.28 57.024L330.264 52.992ZM298.536 26.592C297.24 24.672 294.744 21.648 292.584 19.392L288.312 21.888C290.328 24.288 292.872 27.6 294.072 29.664L298.536 26.592ZM297.528 41.952L296.664 42.096H293.544C296.04 38.832 299.064 34.416 300.84 31.824L297.384 30.24L296.808 30.48H287.112V35.04H293.256C291.48 37.584 289.56 40.224 288.696 41.088C287.784 42.048 286.968 42.432 286.248 42.624C286.68 43.632 287.736 46.08 288.024 47.232C288.456 46.848 289.848 46.512 291 46.512H294.36C292.92 52.992 290.184 57.744 286.152 60.528C287.208 61.248 289.128 63.168 289.848 64.32C292.008 62.688 293.976 60.432 295.56 57.504C299.256 62.448 304.776 63.36 313.56 63.36C319.176 63.36 325.272 63.216 330.264 62.928C330.504 61.344 331.224 58.8 332.04 57.648C326.616 58.176 318.792 58.464 313.656 58.464C305.784 58.416 300.456 57.792 297.624 52.848C298.632 50.016 299.448 46.704 299.928 42.96L297.528 41.952ZM380.512 27.696C379.888 25.728 378.304 22.8 376.864 20.592L372.736 22.368C374.128 24.672 375.616 27.744 376.144 29.712L380.512 27.696ZM357.04 39.6H362.08V41.808H357.04V39.6ZM352.96 45.264H366.4V36.144H352.96V45.264ZM366.592 56.448L362.032 56.928V55.536H366.016V51.792H362.032V49.68C364.048 49.44 365.872 49.104 367.504 48.72L364.48 45.552C361.456 46.368 356.32 46.848 351.808 47.088L351.856 46.896L348.208 45.792C347.968 48.24 347.248 51.696 346.72 53.856L349.6 54.912C350.176 52.992 350.944 50.064 351.712 47.376C352.144 48.288 352.576 49.488 352.72 50.304C354.16 50.304 355.648 50.256 357.232 50.112V51.792H352.864V55.536H357.232V57.456C355.168 57.648 353.344 57.84 351.712 57.936L351.52 54.672C349.84 55.008 348.16 55.392 346.48 55.728V44.496H351.472V39.648H346.48V36.144H350.08V31.728C350.272 32.016 350.512 32.256 350.752 32.496L351.376 31.104V34.608H367.6C367.84 42.768 368.32 49.44 369.28 54.336C368.464 55.584 367.552 56.736 366.64 57.792L366.592 56.448ZM341.104 31.392C342.256 29.952 343.312 28.416 344.32 26.784C346.288 28.224 348.208 29.904 349.744 31.392H341.104ZM375.472 38.448C374.944 41.232 374.176 43.872 373.264 46.368C372.976 43.056 372.784 39.168 372.736 34.608H380.464V30.096H372.688C372.64 26.784 372.688 23.232 372.784 19.344H367.408C367.408 23.136 367.456 26.736 367.504 30.096H362.32V27.408H366.352V23.04H362.32V19.344H357.28V23.04H353.056V27.408H357.28V30.096H351.808L352.864 27.792C351.424 26.256 349.024 24.384 346.576 22.704C346.864 22.128 347.152 21.552 347.392 20.976L343.648 19.056C341.728 23.184 338.512 27.12 335.344 29.568C335.968 30.96 336.928 34.176 337.216 35.472C337.84 34.944 338.416 34.32 339.04 33.744V36.144H342.304V39.648H336.592V44.496H342.304V56.496C339.904 56.928 337.792 57.36 336.016 57.648L336.976 62.784C341.056 61.776 346.384 60.528 351.424 59.232L351.808 62.112L363.568 60.672L363.28 60.912C364.336 61.728 366.208 63.504 366.976 64.416C368.416 63.168 369.712 61.728 370.96 60.24C372.112 62.736 373.696 64.08 375.664 64.08C379.216 64.032 380.608 62.592 381.136 54.336C379.984 53.856 378.496 52.656 377.44 51.6C377.296 56.88 376.864 58.752 376.192 58.752C375.52 58.752 374.896 57.504 374.416 55.152C376.96 50.592 378.976 45.264 380.272 39.312L375.472 38.448ZM336.928 47.232C337.552 49.824 338.176 53.232 338.32 55.536L341.632 54.432C341.392 52.224 340.768 48.816 340.048 46.224L336.928 47.232ZM399.848 22.08C399.368 25.44 398.216 30.192 397.16 33.264L400.856 34.272C402.056 31.44 403.496 26.928 404.696 23.136L399.848 22.08ZM391.304 33.312C391.112 30.24 390.152 25.728 388.856 22.224L384.872 23.232C386.024 26.736 386.936 31.392 387.032 34.368L391.304 33.312ZM414.104 20.592V25.824H418.712C419.72 30.528 421.352 35.136 423.704 38.784H407.336C410.168 34.656 412.136 29.136 413.288 23.184L407.96 22.224C407.144 27.264 405.512 32.064 403.064 35.424V35.232H397.064V19.344H391.784V35.232H384.92V40.56H391.784V43.44L388.664 42.384C387.944 46.032 386.024 50.448 384.056 52.848C384.872 54.624 386.072 57.36 386.504 59.28C388.952 56.544 390.728 51.552 391.784 46.848V64.176H397.064V46.416C398.312 48.816 399.896 52.224 400.664 54.192L404.312 50.112C403.592 48.816 400.04 43.632 399.032 42.528L397.064 43.92V40.56H403.064V38.064C404.072 39.024 405.176 40.176 405.752 40.848L406.04 40.512V44.064H410.024C409.352 51.6 407 57.024 401.528 60.144C402.632 61.008 404.552 63.12 405.176 64.176C411.56 60 414.44 53.472 415.448 44.064H420.68C420.248 53.52 419.768 57.216 419.048 58.224C418.616 58.752 418.232 58.896 417.512 58.896C416.696 58.896 415.256 58.848 413.624 58.704C414.44 60.096 414.968 62.208 415.016 63.744C417.176 63.84 419.192 63.84 420.392 63.6C421.784 63.36 422.84 62.928 423.8 61.584C425.144 59.856 425.672 54.72 426.248 41.184C427.352 39.936 429.032 38.304 430.232 37.488C426.536 33.888 424.04 27.312 423.08 20.592H414.104Z" fill="white"/>
</svg>
