<svg width="198" height="72" viewBox="0 0 198 72" fill="none" xmlns="http://www.w3.org/2000/svg">
<rect width="76" height="72" rx="36" fill="#CA1657"/>
<path d="M40.628 26.152V28.24H36.272V26.152H40.628ZM49.052 28.24H44.156V26.152H49.052V28.24ZM44.156 33.352V31.12H49.052V33.352H44.156ZM36.272 31.984V31.12H40.628V33.352H36.272V31.984ZM40.448 43.396V40.768H44.12V43.396H40.448ZM49.052 36.232V45.268C49.052 45.736 48.872 45.916 48.404 45.916C48.188 45.916 47.72 45.916 47.108 45.916V37.96H37.568V47.248H40.448V46.204H45.344C45.776 47.212 46.136 48.508 46.28 49.444C48.656 49.444 50.348 49.408 51.464 48.796C52.616 48.148 52.976 47.212 52.976 45.34V22.696H32.384V31.984C32.384 36.412 32.276 42.676 30.548 47.068C31.52 47.464 33.284 48.436 34.04 49.048C35.444 45.52 35.984 40.588 36.2 36.232H49.052ZM30.044 27.124C29.108 25.648 27.272 23.416 25.76 21.652L22.52 23.452C23.96 25.216 25.796 27.736 26.66 29.248L30.044 27.124ZM28.712 38.464L28.064 38.572H26.264C27.956 36.088 30.044 32.704 31.232 30.724L28.64 29.716L28.28 29.86H21.656V33.28H25.796C24.608 35.188 23.312 37.204 22.736 37.852C22.088 38.572 21.512 38.86 20.936 39.004C21.332 39.76 22.088 41.56 22.304 42.424C22.628 42.136 23.636 41.884 24.392 41.884H26.624C25.616 46.672 23.564 50.236 20.648 52.288C21.476 52.828 22.88 54.304 23.456 55.168C25.112 53.872 26.552 52.144 27.668 49.876C30.44 53.8 34.616 54.52 41.42 54.52C45.596 54.52 50.204 54.448 53.948 54.196C54.164 53.044 54.704 51.1 55.316 50.236C51.248 50.632 45.308 50.848 41.528 50.848C35.372 50.812 31.232 50.308 29.18 46.276C29.9 44.188 30.404 41.848 30.728 39.22L28.712 38.464Z" fill="white"/>
<rect x="61" width="76" height="72" rx="36" fill="#CA1657"/>
<path d="M101.628 26.152V28.24H97.272V26.152H101.628ZM110.052 28.24H105.156V26.152H110.052V28.24ZM105.156 33.352V31.12H110.052V33.352H105.156ZM97.272 31.984V31.12H101.628V33.352H97.272V31.984ZM101.448 43.396V40.768H105.12V43.396H101.448ZM110.052 36.232V45.268C110.052 45.736 109.872 45.916 109.404 45.916C109.188 45.916 108.72 45.916 108.108 45.916V37.96H98.568V47.248H101.448V46.204H106.344C106.776 47.212 107.136 48.508 107.28 49.444C109.656 49.444 111.348 49.408 112.464 48.796C113.616 48.148 113.976 47.212 113.976 45.34V22.696H93.384V31.984C93.384 36.412 93.276 42.676 91.548 47.068C92.52 47.464 94.284 48.436 95.04 49.048C96.444 45.52 96.984 40.588 97.2 36.232H110.052ZM91.044 27.124C90.108 25.648 88.272 23.416 86.76 21.652L83.52 23.452C84.96 25.216 86.796 27.736 87.66 29.248L91.044 27.124ZM89.712 38.464L89.064 38.572H87.264C88.956 36.088 91.044 32.704 92.232 30.724L89.64 29.716L89.28 29.86H82.656V33.28H86.796C85.608 35.188 84.312 37.204 83.736 37.852C83.088 38.572 82.512 38.86 81.936 39.004C82.332 39.76 83.088 41.56 83.304 42.424C83.628 42.136 84.636 41.884 85.392 41.884H87.624C86.616 46.672 84.564 50.236 81.648 52.288C82.476 52.828 83.88 54.304 84.456 55.168C86.112 53.872 87.552 52.144 88.668 49.876C91.44 53.8 95.616 54.52 102.42 54.52C106.596 54.52 111.204 54.448 114.948 54.196C115.164 53.044 115.704 51.1 116.316 50.236C112.248 50.632 106.308 50.848 102.528 50.848C96.372 50.812 92.232 50.308 90.18 46.276C90.9 44.188 91.404 41.848 91.728 39.22L89.712 38.464Z" fill="white"/>
<rect x="122" width="76" height="72" rx="36" fill="#CA1657"/>
<path d="M155.176 36.844L151.828 37.708V32.272H155.284V28.276H151.828V21.544H147.688V28.276H143.368V32.272H147.688V38.752C145.888 39.184 144.196 39.58 142.792 39.868L143.872 43.936C145.06 43.612 146.32 43.324 147.688 42.964V50.632C147.688 51.136 147.508 51.316 147.004 51.316C146.536 51.316 145.096 51.316 143.692 51.244C144.196 52.36 144.772 54.016 144.88 55.132C147.364 55.132 149.092 55.024 150.28 54.34C151.468 53.728 151.828 52.684 151.828 50.632V41.812L155.716 40.732L155.176 36.844ZM167.92 48.364V42.784H171.844V48.364H167.92ZM160.216 42.784H163.888V48.364H160.216V42.784ZM163.888 33.568V38.788H160.216V33.568H163.888ZM171.844 33.568V38.788H167.92V33.568H171.844ZM167.92 29.5V21.544H163.888V29.5H156.112V55.06H160.216V52.468H171.844V54.808H176.092V29.5H167.92Z" fill="white"/>
</svg>
