<svg width="198" height="72" viewBox="0 0 198 72" fill="none" xmlns="http://www.w3.org/2000/svg">
<rect width="76" height="72" rx="36" fill="#CA1657"/>
<path d="M40.196 37.024L36.164 38.032C39.08 46.528 43.868 52.252 52.292 54.952C52.94 53.728 54.236 51.892 55.244 50.956C47.396 48.904 42.5 43.864 40.196 37.024ZM23.636 23.848V28.276H52.256V23.848H23.636ZM22.268 34.684V39.148H53.696V34.684H22.268ZM35.408 25.36V31.948C35.408 37.96 34.004 46.78 21.044 51.352C21.944 52.216 23.312 53.98 23.852 55.06C38.252 49.768 39.98 39.436 39.98 31.984V25.36H35.408Z" fill="white"/>
<rect x="61" width="76" height="72" rx="36" fill="#CA1657"/>
<path d="M114.624 39.112V34.72H100.908C100.944 33.784 100.98 32.884 100.98 32.02V28.312H113.22V23.92H84.708V28.312H96.48V31.948C96.48 32.848 96.444 33.748 96.372 34.72H83.412V39.112H95.472C93.996 43.684 90.468 48.328 82.152 51.28C83.088 52.108 84.384 53.908 84.96 54.988C93.06 51.964 97.128 47.428 99.108 42.64C102.132 48.544 106.488 52.72 113.256 54.88C113.868 53.656 115.164 51.784 116.208 50.884C109.188 49.048 104.58 44.836 102.06 39.112H114.624Z" fill="white"/>
<rect x="122" width="76" height="72" rx="36" fill="#CA1657"/>
<path d="M155.176 36.844L151.828 37.708V32.272H155.284V28.276H151.828V21.544H147.688V28.276H143.368V32.272H147.688V38.752C145.888 39.184 144.196 39.58 142.792 39.868L143.872 43.936C145.06 43.612 146.32 43.324 147.688 42.964V50.632C147.688 51.136 147.508 51.316 147.004 51.316C146.536 51.316 145.096 51.316 143.692 51.244C144.196 52.36 144.772 54.016 144.88 55.132C147.364 55.132 149.092 55.024 150.28 54.34C151.468 53.728 151.828 52.684 151.828 50.632V41.812L155.716 40.732L155.176 36.844ZM167.92 48.364V42.784H171.844V48.364H167.92ZM160.216 42.784H163.888V48.364H160.216V42.784ZM163.888 33.568V38.788H160.216V33.568H163.888ZM171.844 33.568V38.788H167.92V33.568H171.844ZM167.92 29.5V21.544H163.888V29.5H156.112V55.06H160.216V52.468H171.844V54.808H176.092V29.5H167.92Z" fill="white"/>
</svg>
